<?xml version="1.0" encoding="UTF-8" standalone="no"?>
<!DOCTYPE svg PUBLIC "-//W3C//DTD SVG 1.1//EN"
 "http://www.w3.org/Graphics/SVG/1.1/DTD/svg11.dtd">
<!-- Generated by graphviz version 8.0.5 (20230430.1635)
 -->
<!-- Title: Graphical Class Hierarchy Pages: 1 -->
<svg width="367pt" height="88pt"
 viewBox="0.00 0.00 366.50 87.50" xmlns="http://www.w3.org/2000/svg" xmlns:xlink="http://www.w3.org/1999/xlink">
<g id="graph0" class="graph" transform="scale(1 1) rotate(0) translate(4 83.5)">
<title>Graphical Class Hierarchy</title>
<!-- Node0 -->
<g id="Node000000" class="node">
<title>Node0</title>
<g id="a_Node000000"><a xlink:title=" ">
<polygon fill="#e0e0e0" stroke="#999999" points="77.5,-48.88 0,-48.88 0,-29.62 77.5,-29.62 77.5,-48.88"/>
<text text-anchor="middle" x="38.75" y="-35.38" font-family="Helvetica,sans-Serif" font-size="10.00">std::exception</text>
</a>
</g>
</g>
<!-- Node1 -->
<g id="Node000001" class="node">
<title>Node1</title>
<g id="a_Node000001"><a xlink:title=" ">
<polygon fill="#e0e0e0" stroke="#999999" points="206,-48.88 113.5,-48.88 113.5,-29.62 206,-29.62 206,-48.88"/>
<text text-anchor="middle" x="159.75" y="-35.38" font-family="Helvetica,sans-Serif" font-size="10.00">std::runtime_error</text>
</a>
</g>
</g>
<!-- Node0&#45;&gt;Node1 -->
<g id="edge1_Node000000_Node000001" class="edge">
<title>Node0&#45;&gt;Node1</title>
<g id="a_edge1_Node000000_Node000001"><a xlink:title=" ">
<path fill="none" stroke="#63b8ff" d="M88.61,-39.25C96.75,-39.25 105.17,-39.25 113.23,-39.25"/>
<polygon fill="#63b8ff" stroke="#63b8ff" points="88.73,-35.75 78.73,-39.25 88.73,-42.75 88.73,-35.75"/>
</a>
</g>
</g>
<!-- Node2 -->
<g id="Node000002" class="node">
<title>Node2</title>
<g id="a_Node000002"><a xlink:href="structlimes_1_1serializing_1_1_format_not_found_error.html" target="_top" xlink:title=" ">
<polygon fill="white" stroke="#666666" points="358.5,-79.5 242,-79.5 242,-49 358.5,-49 358.5,-79.5"/>
<text text-anchor="start" x="250" y="-66" font-family="Helvetica,sans-Serif" font-size="10.00">limes::serializing</text>
<text text-anchor="middle" x="300.25" y="-54.75" font-family="Helvetica,sans-Serif" font-size="10.00">::FormatNotFoundError</text>
</a>
</g>
</g>
<!-- Node1&#45;&gt;Node2 -->
<g id="edge2_Node000001_Node000002" class="edge">
<title>Node1&#45;&gt;Node2</title>
<g id="a_edge2_Node000001_Node000002"><a xlink:title=" ">
<path fill="none" stroke="#63b8ff" d="M217.08,-49.42C225.28,-50.9 233.73,-52.42 241.95,-53.91"/>
<polygon fill="#63b8ff" stroke="#63b8ff" points="217.95,-45.84 207.48,-47.51 216.7,-52.73 217.95,-45.84"/>
</a>
</g>
</g>
<!-- Node3 -->
<g id="Node000003" class="node">
<title>Node3</title>
<g id="a_Node000003"><a xlink:href="structlimes_1_1serializing_1_1_parse_error.html" target="_top" xlink:title="An exception that is thrown by the parsing functions if errors are encountered.">
<polygon fill="white" stroke="#666666" points="344.62,-30.5 255.88,-30.5 255.88,0 344.62,0 344.62,-30.5"/>
<text text-anchor="start" x="263.88" y="-17" font-family="Helvetica,sans-Serif" font-size="10.00">limes::serializing</text>
<text text-anchor="middle" x="300.25" y="-5.75" font-family="Helvetica,sans-Serif" font-size="10.00">::ParseError</text>
</a>
</g>
</g>
<!-- Node1&#45;&gt;Node3 -->
<g id="edge3_Node000001_Node000003" class="edge">
<title>Node1&#45;&gt;Node3</title>
<g id="a_edge3_Node000001_Node000003"><a xlink:title=" ">
<path fill="none" stroke="#63b8ff" d="M217.05,-29.49C229.85,-27.28 243.26,-24.95 255.45,-22.84"/>
<polygon fill="#63b8ff" stroke="#63b8ff" points="216.74,-26.17 207.48,-31.32 217.93,-33.07 216.74,-26.17"/>
</a>
</g>
</g>
</g>
</svg>
