<?xml version="1.0" encoding="UTF-8" standalone="no"?>
<!DOCTYPE svg PUBLIC "-//W3C//DTD SVG 1.1//EN"
 "http://www.w3.org/Graphics/SVG/1.1/DTD/svg11.dtd">
<!-- Generated by graphviz version 8.0.5 (20230430.1635)
 -->
<!-- Title: lserializing_Node.h Pages: 1 -->
<!--zoomable 160 -->

<svg id="main" version="1.1" xmlns="http://www.w3.org/2000/svg" xmlns:xlink="http://www.w3.org/1999/xlink" xml:space="preserve" onload="init(evt)">
<style type="text/css"><![CDATA[
.node, .edge {opacity: 0.7;}
.node.selected, .edge.selected {opacity: 1;}
.edge:hover path { stroke: red; }
.edge:hover polygon { stroke: red; fill: red; }
]]></style>

<defs>
  <circle id="rim" cx="0" cy="0" r="7"/>
  <circle id="rim2" cx="0" cy="0" r="3.5"/>
  <g id="zoomPlus">
    <use xlink:href="#rim" fill="#404040"><set attributeName="fill" to="#808080" begin="zoomplus.mouseover" end="zoomplus.mouseout"/></use>
    <path d="M-4,0h8M0,-4v8" fill="none" stroke="white" stroke-width="1.5" pointer-events="none"/>
  </g>
  <g id="zoomMin">
    <use xlink:href="#rim" fill="#404040"><set attributeName="fill" to="#808080" begin="zoomminus.mouseover" end="zoomminus.mouseout"/></use>
    <path d="M-4,0h8" fill="none" stroke="white" stroke-width="1.5" pointer-events="none"/>
  </g>
  <g id="arrowUp" transform="translate(30 24)">
    <use xlink:href="#rim"/>
    <path pointer-events="none" fill="none" stroke="white" stroke-width="1.5" d="M0,-3.0v7 M-2.5,-0.5L0,-3.0L2.5,-0.5"/>
  </g>
  <g id="arrowRight" transform="rotate(90) translate(36 -43)">
    <use xlink:href="#rim"/>
    <path pointer-events="none" fill="none" stroke="white" stroke-width="1.5" d="M0,-3.0v7 M-2.5,-0.5L0,-3.0L2.5,-0.5"/>
  </g>
  <g id="arrowDown" transform="rotate(180) translate(-30 -48)">
    <use xlink:href="#rim"/>
    <path pointer-events="none" fill="none" stroke="white" stroke-width="1.5" d="M0,-3.0v7 M-2.5,-0.5L0,-3.0L2.5,-0.5"/>
  </g>
  <g id="arrowLeft" transform="rotate(270) translate(-36 17)">
    <use xlink:href="#rim"/>
    <path pointer-events="none" fill="none" stroke="white" stroke-width="1.5" d="M0,-3.0v7 M-2.5,-0.5L0,-3.0L2.5,-0.5"/>
  </g>
  <g id="resetDef">
    <use xlink:href="#rim2" fill="#404040"><set attributeName="fill" to="#808080" begin="reset.mouseover" end="reset.mouseout"/></use>
  </g>
</defs>
<script type="application/ecmascript">
var viewWidth = 728;
var viewHeight = 160;
var sectionId = 'dynsection-0';
</script>
<script type="application/ecmascript" xlink:href="svg.min.js"/>
<svg id="graph" class="graph">
<g id="viewport">
<title>lserializing_Node.h</title>
<!-- Node1 -->
<g id="Node000001" class="node">
<title>Node1</title>
<g id="a_Node000001"><a xlink:title="This file defines the Node class.">
<polygon fill="#999999" stroke="#666666" points="374,-152.25 275.5,-152.25 275.5,-133 374,-133 374,-152.25"/>
<text text-anchor="middle" x="324.75" y="-138.75" font-family="Helvetica,sans-Serif" font-size="10.00">lserializing_Node.h</text>
</a>
</g>
</g>
<!-- Node2 -->
<g id="Node000002" class="node">
<title>Node2</title>
<g id="a_Node000002"><a xlink:title=" ">
<polygon fill="#e0e0e0" stroke="#999999" points="65.5,-24.88 0,-24.88 0,-5.63 65.5,-5.63 65.5,-24.88"/>
<text text-anchor="middle" x="32.75" y="-11.38" font-family="Helvetica,sans-Serif" font-size="10.00">string_view</text>
</a>
</g>
</g>
<!-- Node1&#45;&gt;Node2 -->
<g id="edge1_Node000001_Node000002" class="edge">
<title>Node1&#45;&gt;Node2</title>
<g id="a_edge1_Node000001_Node000002"><a xlink:title=" ">
<path fill="none" stroke="#63b8ff" d="M275.07,-133.36C239.88,-126.42 192.13,-114.73 152.75,-97 114.11,-79.6 74.27,-50.05 51.6,-31.93"/>
<polygon fill="#63b8ff" stroke="#63b8ff" points="54.23,-28.74 44.26,-25.16 49.81,-34.18 54.23,-28.74"/>
</a>
</g>
</g>
<!-- Node3 -->
<g id="Node000003" class="node">
<title>Node3</title>
<g id="a_Node000003"><a xlink:title=" ">
<polygon fill="#e0e0e0" stroke="#999999" points="123.75,-24.88 83.75,-24.88 83.75,-5.63 123.75,-5.63 123.75,-24.88"/>
<text text-anchor="middle" x="103.75" y="-11.38" font-family="Helvetica,sans-Serif" font-size="10.00">string</text>
</a>
</g>
</g>
<!-- Node1&#45;&gt;Node3 -->
<g id="edge2_Node000001_Node000003" class="edge">
<title>Node1&#45;&gt;Node3</title>
<g id="a_edge2_Node000001_Node000003"><a xlink:title=" ">
<path fill="none" stroke="#63b8ff" d="M287,-132.54C260.61,-125.23 225.15,-113.46 196.75,-97 166.38,-79.4 136.72,-51.17 119.35,-33.18"/>
<polygon fill="#63b8ff" stroke="#63b8ff" points="122.27,-31.12 112.86,-26.26 117.19,-35.93 122.27,-31.12"/>
</a>
</g>
</g>
<!-- Node4 -->
<g id="Node000004" class="node">
<title>Node4</title>
<g id="a_Node000004"><a xlink:title=" ">
<polygon fill="#e0e0e0" stroke="#999999" points="185.25,-24.88 142.25,-24.88 142.25,-5.63 185.25,-5.63 185.25,-24.88"/>
<text text-anchor="middle" x="163.75" y="-11.38" font-family="Helvetica,sans-Serif" font-size="10.00">vector</text>
</a>
</g>
</g>
<!-- Node1&#45;&gt;Node4 -->
<g id="edge3_Node000001_Node000004" class="edge">
<title>Node1&#45;&gt;Node4</title>
<g id="a_edge3_Node000001_Node000004"><a xlink:title=" ">
<path fill="none" stroke="#63b8ff" d="M298.63,-132.54C279.01,-124.94 252.14,-112.79 231.75,-97 208.63,-79.09 187.91,-52.13 175.59,-34.37"/>
<polygon fill="#63b8ff" stroke="#63b8ff" points="177.98,-32.66 169.49,-26.33 172.18,-36.58 177.98,-32.66"/>
</a>
</g>
</g>
<!-- Node5 -->
<g id="Node000005" class="node">
<title>Node5</title>
<g id="a_Node000005"><a xlink:title=" ">
<polygon fill="#e0e0e0" stroke="#999999" points="238.12,-24.88 203.38,-24.88 203.38,-5.63 238.12,-5.63 238.12,-24.88"/>
<text text-anchor="middle" x="220.75" y="-11.38" font-family="Helvetica,sans-Serif" font-size="10.00">map</text>
</a>
</g>
</g>
<!-- Node1&#45;&gt;Node5 -->
<g id="edge4_Node000001_Node000005" class="edge">
<title>Node1&#45;&gt;Node5</title>
<g id="a_edge4_Node000001_Node000005"><a xlink:title=" ">
<path fill="none" stroke="#63b8ff" d="M302.94,-132.65C287.13,-125.16 266.24,-113.13 252.75,-97 237.81,-79.14 229.25,-53.46 224.81,-35.88"/>
<polygon fill="#63b8ff" stroke="#63b8ff" points="228.01,-35.17 222.37,-26.2 221.19,-36.73 228.01,-35.17"/>
</a>
</g>
</g>
<!-- Node6 -->
<g id="Node000006" class="node">
<title>Node6</title>
<g id="a_Node000006"><a xlink:title=" ">
<polygon fill="#e0e0e0" stroke="#999999" points="301.38,-24.88 256.12,-24.88 256.12,-5.63 301.38,-5.63 301.38,-24.88"/>
<text text-anchor="middle" x="278.75" y="-11.38" font-family="Helvetica,sans-Serif" font-size="10.00">variant</text>
</a>
</g>
</g>
<!-- Node1&#45;&gt;Node6 -->
<g id="edge5_Node000001_Node000006" class="edge">
<title>Node1&#45;&gt;Node6</title>
<g id="a_edge5_Node000001_Node000006"><a xlink:title=" ">
<path fill="none" stroke="#63b8ff" d="M302.32,-132.64C287.58,-125.41 269.46,-113.69 260.75,-97 250.4,-77.18 259.3,-51.6 267.86,-34.6"/>
<polygon fill="#63b8ff" stroke="#63b8ff" points="271.24,-36.7 272.97,-26.25 265.1,-33.34 271.24,-36.7"/>
</a>
</g>
</g>
<!-- Node7 -->
<g id="Node000007" class="node">
<title>Node7</title>
<g id="a_Node000007"><a xlink:title=" ">
<polygon fill="#e0e0e0" stroke="#999999" points="358.38,-24.88 319.12,-24.88 319.12,-5.63 358.38,-5.63 358.38,-24.88"/>
<text text-anchor="middle" x="338.75" y="-11.38" font-family="Helvetica,sans-Serif" font-size="10.00">utility</text>
</a>
</g>
</g>
<!-- Node1&#45;&gt;Node7 -->
<g id="edge6_Node000001_Node000007" class="edge">
<title>Node1&#45;&gt;Node7</title>
<g id="a_edge6_Node000001_Node000007"><a xlink:title=" ">
<path fill="none" stroke="#63b8ff" d="M347.18,-132.64C361.92,-125.41 380.04,-113.69 388.75,-97 395.02,-84.98 393.92,-79.03 388.75,-66.5 383.03,-52.64 371.42,-40.58 360.83,-31.76"/>
<polygon fill="#63b8ff" stroke="#63b8ff" points="363.37,-28.52 353.32,-25.14 359.07,-34.04 363.37,-28.52"/>
</a>
</g>
</g>
<!-- Node8 -->
<g id="Node000008" class="node">
<title>Node8</title>
<g id="a_Node000008"><a xlink:title=" ">
<polygon fill="#e0e0e0" stroke="#999999" points="438.62,-24.88 376.88,-24.88 376.88,-5.63 438.62,-5.63 438.62,-24.88"/>
<text text-anchor="middle" x="407.75" y="-11.38" font-family="Helvetica,sans-Serif" font-size="10.00">type_traits</text>
</a>
</g>
</g>
<!-- Node1&#45;&gt;Node8 -->
<g id="edge7_Node000001_Node000008" class="edge">
<title>Node1&#45;&gt;Node8</title>
<g id="a_edge7_Node000001_Node000008"><a xlink:title=" ">
<path fill="none" stroke="#63b8ff" d="M356.83,-132.64C374.51,-125.89 395,-114.7 405.75,-97 416.93,-78.6 415.42,-53.22 412.42,-35.85"/>
<polygon fill="#63b8ff" stroke="#63b8ff" points="415.69,-35.38 410.24,-26.29 408.83,-36.79 415.69,-35.38"/>
</a>
</g>
</g>
<!-- Node9 -->
<g id="Node000009" class="node">
<title>Node9</title>
<g id="a_Node000009"><a xlink:title=" ">
<polygon fill="#e0e0e0" stroke="#999999" points="514.75,-24.88 456.75,-24.88 456.75,-5.63 514.75,-5.63 514.75,-24.88"/>
<text text-anchor="middle" x="485.75" y="-11.38" font-family="Helvetica,sans-Serif" font-size="10.00">functional</text>
</a>
</g>
</g>
<!-- Node1&#45;&gt;Node9 -->
<g id="edge8_Node000001_Node000009" class="edge">
<title>Node1&#45;&gt;Node9</title>
<g id="a_edge8_Node000001_Node000009"><a xlink:title=" ">
<path fill="none" stroke="#63b8ff" d="M354.91,-132.64C375.96,-125.36 403.92,-113.57 424.75,-97 446.71,-79.54 465,-52.45 475.66,-34.53"/>
<polygon fill="#63b8ff" stroke="#63b8ff" points="479.09,-36.6 481.03,-26.18 473.02,-33.12 479.09,-36.6"/>
</a>
</g>
</g>
<!-- Node10 -->
<g id="Node000010" class="node">
<title>Node10</title>
<g id="a_Node000010"><a xlink:title=" ">
<polygon fill="#e0e0e0" stroke="#999999" points="591.12,-24.88 532.38,-24.88 532.38,-5.63 591.12,-5.63 591.12,-24.88"/>
<text text-anchor="middle" x="561.75" y="-11.38" font-family="Helvetica,sans-Serif" font-size="10.00">stdexcept</text>
</a>
</g>
</g>
<!-- Node1&#45;&gt;Node10 -->
<g id="edge9_Node000001_Node000010" class="edge">
<title>Node1&#45;&gt;Node10</title>
<g id="a_edge9_Node000001_Node000010"><a xlink:title=" ">
<path fill="none" stroke="#63b8ff" d="M360.18,-132.57C386.81,-125.02 423.71,-112.93 453.75,-97 488.16,-78.75 523.46,-50.12 543.96,-32.3"/>
<polygon fill="#63b8ff" stroke="#63b8ff" points="545.86,-35.41 551.04,-26.17 541.23,-30.17 545.86,-35.41"/>
</a>
</g>
</g>
<!-- Node11 -->
<g id="Node000011" class="node">
<title>Node11</title>
<g id="a_Node000011"><a xlink:href="lserializing___serializable_data_8h.html" target="_top" xlink:title="This file defines the SerializableData class.">
<polygon fill="white" stroke="#666666" points="380,-97 269.5,-97 269.5,-66.5 380,-66.5 380,-97"/>
<text text-anchor="start" x="277.5" y="-83.5" font-family="Helvetica,sans-Serif" font-size="10.00">lserializing/lserializing</text>
<text text-anchor="middle" x="324.75" y="-72.25" font-family="Helvetica,sans-Serif" font-size="10.00">_SerializableData.h</text>
</a>
</g>
</g>
<!-- Node1&#45;&gt;Node11 -->
<g id="edge10_Node000001_Node000011" class="edge">
<title>Node1&#45;&gt;Node11</title>
<g id="a_edge10_Node000001_Node000011"><a xlink:title=" ">
<path fill="none" stroke="#63b8ff" d="M324.75,-132.68C324.75,-126.15 324.75,-116.95 324.75,-108.22"/>
<polygon fill="#63b8ff" stroke="#63b8ff" points="328.25,-108.28 324.75,-98.28 321.25,-108.28 328.25,-108.28"/>
</a>
</g>
</g>
<!-- Node12 -->
<g id="Node000012" class="node">
<title>Node12</title>
<g id="a_Node000012"><a xlink:title=" ">
<polygon fill="#e0e0e0" stroke="#999999" points="720,-30.5 609.5,-30.5 609.5,0 720,0 720,-30.5"/>
<text text-anchor="start" x="617.5" y="-17" font-family="Helvetica,sans-Serif" font-size="10.00">lserializing/lserializing</text>
<text text-anchor="middle" x="664.75" y="-5.75" font-family="Helvetica,sans-Serif" font-size="10.00">_Export.h</text>
</a>
</g>
</g>
<!-- Node1&#45;&gt;Node12 -->
<g id="edge21_Node000001_Node000012" class="edge">
<title>Node1&#45;&gt;Node12</title>
<g id="a_edge21_Node000001_Node000012"><a xlink:title=" ">
<path fill="none" stroke="#63b8ff" d="M366.9,-132.53C401.05,-124.64 450.15,-112.13 491.75,-97 539.94,-79.47 593.08,-53.63 627.58,-35.93"/>
<polygon fill="#63b8ff" stroke="#63b8ff" points="628.95,-38.65 636.22,-30.94 625.73,-32.43 628.95,-38.65"/>
</a>
</g>
</g>
<!-- Node11&#45;&gt;Node2 -->
<g id="edge11_Node000011_Node000002" class="edge">
<title>Node11&#45;&gt;Node2</title>
<g id="a_edge11_Node000011_Node000002"><a xlink:title=" ">
<path fill="none" stroke="#63b8ff" d="M269.16,-71.69C218.18,-62.89 140.8,-48.26 74.75,-30.5 72.6,-29.92 70.4,-29.29 68.19,-28.63"/>
<polygon fill="#63b8ff" stroke="#63b8ff" points="69.5,-25.06 58.91,-25.37 67.38,-31.73 69.5,-25.06"/>
</a>
</g>
</g>
<!-- Node11&#45;&gt;Node3 -->
<g id="edge12_Node000011_Node000003" class="edge">
<title>Node11&#45;&gt;Node3</title>
<g id="a_edge12_Node000011_Node000003"><a xlink:title=" ">
<path fill="none" stroke="#63b8ff" d="M269.22,-69.33C230.38,-60.59 177.63,-47.21 132.75,-30.5 132,-30.22 131.25,-29.93 130.49,-29.63"/>
<polygon fill="#63b8ff" stroke="#63b8ff" points="132.23,-26.13 121.67,-25.27 129.39,-32.53 132.23,-26.13"/>
</a>
</g>
</g>
<!-- Node11&#45;&gt;Node4 -->
<g id="edge13_Node000011_Node000004" class="edge">
<title>Node11&#45;&gt;Node4</title>
<g id="a_edge13_Node000011_Node000004"><a xlink:title=" ">
<path fill="none" stroke="#63b8ff" d="M284.95,-66.1C259.09,-56.4 224.73,-43.17 194.75,-30.5 194.15,-30.25 193.55,-29.99 192.94,-29.73"/>
<polygon fill="#63b8ff" stroke="#63b8ff" points="194.58,-26.18 184.02,-25.33 191.74,-32.58 194.58,-26.18"/>
</a>
</g>
</g>
<!-- Node11&#45;&gt;Node5 -->
<g id="edge14_Node000011_Node000005" class="edge">
<title>Node11&#45;&gt;Node5</title>
<g id="a_edge14_Node000011_Node000005"><a xlink:title=" ">
<path fill="none" stroke="#63b8ff" d="M301.15,-66.11C284.22,-55.61 261.49,-41.52 244.52,-30.99"/>
<polygon fill="#63b8ff" stroke="#63b8ff" points="246.62,-27.56 236.28,-25.26 242.93,-33.5 246.62,-27.56"/>
</a>
</g>
</g>
<!-- Node11&#45;&gt;Node6 -->
<g id="edge15_Node000011_Node000006" class="edge">
<title>Node11&#45;&gt;Node6</title>
<g id="a_edge15_Node000011_Node000006"><a xlink:title=" ">
<path fill="none" stroke="#63b8ff" d="M314.31,-66.11C307.48,-56.54 298.52,-43.97 291.3,-33.85"/>
<polygon fill="#63b8ff" stroke="#63b8ff" points="293.7,-32.18 285.04,-26.07 288,-36.25 293.7,-32.18"/>
</a>
</g>
</g>
<!-- Node11&#45;&gt;Node7 -->
<g id="edge16_Node000011_Node000007" class="edge">
<title>Node11&#45;&gt;Node7</title>
<g id="a_edge16_Node000011_Node000007"><a xlink:title=" ">
<path fill="none" stroke="#63b8ff" d="M327.93,-66.11C329.88,-57.13 332.4,-45.51 334.52,-35.76"/>
<polygon fill="#63b8ff" stroke="#63b8ff" points="338.13,-36.59 336.84,-26.07 331.29,-35.1 338.13,-36.59"/>
</a>
</g>
</g>
<!-- Node11&#45;&gt;Node8 -->
<g id="edge17_Node000011_Node000008" class="edge">
<title>Node11&#45;&gt;Node8</title>
<g id="a_edge17_Node000011_Node000008"><a xlink:title=" ">
<path fill="none" stroke="#63b8ff" d="M343.58,-66.11C356.8,-55.85 374.43,-42.14 387.87,-31.7"/>
<polygon fill="#63b8ff" stroke="#63b8ff" points="389.65,-33.97 395.4,-25.07 385.35,-28.45 389.65,-33.97"/>
</a>
</g>
</g>
<!-- Node11&#45;&gt;Node9 -->
<g id="edge18_Node000011_Node000009" class="edge">
<title>Node11&#45;&gt;Node9</title>
<g id="a_edge18_Node000011_Node000009"><a xlink:title=" ">
<path fill="none" stroke="#63b8ff" d="M361.28,-66.11C388.97,-55.02 426.66,-39.92 453.29,-29.25"/>
<polygon fill="#63b8ff" stroke="#63b8ff" points="454.28,-32.23 462.26,-25.26 451.68,-25.73 454.28,-32.23"/>
</a>
</g>
</g>
<!-- Node11&#45;&gt;Node10 -->
<g id="edge19_Node000011_Node000010" class="edge">
<title>Node11&#45;&gt;Node10</title>
<g id="a_edge19_Node000011_Node000010"><a xlink:title=" ">
<path fill="none" stroke="#63b8ff" d="M380.11,-68.52C420.3,-59.22 475.8,-45.49 523.75,-30.5 525.46,-29.97 527.21,-29.4 528.96,-28.8"/>
<polygon fill="#63b8ff" stroke="#63b8ff" points="529.73,-31.89 537.99,-25.26 527.39,-25.29 529.73,-31.89"/>
</a>
</g>
</g>
<!-- Node11&#45;&gt;Node12 -->
<g id="edge20_Node000011_Node000012" class="edge">
<title>Node11&#45;&gt;Node12</title>
<g id="a_edge20_Node000011_Node000012"><a xlink:title=" ">
<path fill="none" stroke="#63b8ff" d="M380.43,-71.17C433.78,-61.85 516.82,-47 598.62,-30.68"/>
<polygon fill="#63b8ff" stroke="#63b8ff" points="598.99,-33.98 608.11,-28.58 597.61,-27.12 598.99,-33.98"/>
</a>
</g>
</g>
</g>
</svg>

<g id="navigator" transform="translate(0 0)" fill="#404254">
  <rect fill="#f2f5e9" fill-opacity="0.5" stroke="#606060" stroke-width=".5" x="0" y="0" width="60" height="60"/>
  <use id="zoomplus" xlink:href="#zoomPlus" x="17" y="9" onmousedown="handleZoom(evt,'in')"/>
  <use id="zoomminus" xlink:href="#zoomMin" x="42" y="9" onmousedown="handleZoom(evt,'out')"/>
  <use id="reset" xlink:href="#resetDef" x="30" y="36" onmousedown="handleReset()"/>
   <use id="arrowup" xlink:href="#arrowUp" x="0" y="0" onmousedown="handlePan(0,-1)"/>
  <use id="arrowright" xlink:href="#arrowRight" x="0" y="0" onmousedown="handlePan(1,0)"/>
  <use id="arrowdown" xlink:href="#arrowDown" x="0" y="0" onmousedown="handlePan(0,1)"/>
  <use id="arrowleft" xlink:href="#arrowLeft" x="0" y="0" onmousedown="handlePan(-1,0)"/>
</g>
<svg viewBox="0 0 15 15" width="100%" height="30px" preserveAspectRatio="xMaxYMin meet">
 <g id="arrow_out" transform="scale(0.3 0.3)">
  <a xlink:href="lserializing___node_8h__incl_org.svg" target="_base">
   <rect id="button" ry="5" rx="5" y="6" x="6" height="38" width="38"
        fill="#f2f5e9" fill-opacity="0.5" stroke="#606060" stroke-width="1.0"/>
   <path id="arrow"
     d="M 11.500037,31.436501 C 11.940474,20.09759 22.043105,11.32322 32.158766,21.979434 L 37.068811,17.246167 C 37.068811,17.246167 37.088388,32 37.088388,32 L 22.160133,31.978069 C 22.160133,31.978069 26.997745,27.140456 26.997745,27.140456 C 18.528582,18.264221 13.291696,25.230495 11.500037,31.436501 z"
     style="fill:#404040;"/>
  </a>
 </g>
</svg>

<style type='text/css'>
<![CDATA[
[data-mouse-over-selected='false'] { opacity: 0.7; }
[data-mouse-over-selected='true']  { opacity: 1.0; }
]]>
</style>
<script type="application/ecmascript"><![CDATA[
document.addEventListener('DOMContentLoaded', (event) => {
  highlightEdges();
  highlightAdjacentNodes();
});
]]></script>
</svg>
