<?xml version="1.0" encoding="UTF-8" standalone="no"?>
<!DOCTYPE svg PUBLIC "-//W3C//DTD SVG 1.1//EN"
 "http://www.w3.org/Graphics/SVG/1.1/DTD/svg11.dtd">
<!-- Generated by graphviz version 8.0.5 (20230430.1635)
 -->
<!-- Title: lserializing.h Pages: 1 -->
<svg width="1184pt" height="349pt"
 viewBox="0.00 0.00 1183.62 348.50" xmlns="http://www.w3.org/2000/svg" xmlns:xlink="http://www.w3.org/1999/xlink">
<g id="graph0" class="graph" transform="scale(1 1) rotate(0) translate(4 344.5)">
<title>lserializing.h</title>
<!-- Node1 -->
<g id="Node000001" class="node">
<title>Node1</title>
<g id="a_Node000001"><a xlink:title="The main header for the limes_serializing library.">
<polygon fill="#999999" stroke="#666666" points="691.62,-340.5 621.62,-340.5 621.62,-321.25 691.62,-321.25 691.62,-340.5"/>
<text text-anchor="middle" x="656.62" y="-327" font-family="Helvetica,sans-Serif" font-size="10.00">lserializing.h</text>
</a>
</g>
</g>
<!-- Node2 -->
<g id="Node000002" class="node">
<title>Node2</title>
<g id="a_Node000002"><a xlink:href="lserializing___enums_8h.html" target="_top" xlink:title="Utilities for serializing enum values.">
<polygon fill="white" stroke="#666666" points="530.62,-218.75 418.62,-218.75 418.62,-199.5 530.62,-199.5 530.62,-218.75"/>
<text text-anchor="middle" x="474.62" y="-205.25" font-family="Helvetica,sans-Serif" font-size="10.00">./lserializing_Enums.h</text>
</a>
</g>
</g>
<!-- Node1&#45;&gt;Node2 -->
<g id="edge1_Node000001_Node000002" class="edge">
<title>Node1&#45;&gt;Node2</title>
<g id="a_edge1_Node000001_Node000002"><a xlink:title=" ">
<path fill="none" stroke="#63b8ff" d="M623.12,-320.8C599.82,-313.51 568.72,-301.74 544.62,-285.25 521.5,-269.43 500.39,-244.72 487.53,-228"/>
<polygon fill="#63b8ff" stroke="#63b8ff" points="489.75,-226.12 480.96,-220.21 484.14,-230.31 489.75,-226.12"/>
</a>
</g>
</g>
<!-- Node6 -->
<g id="Node000006" class="node">
<title>Node6</title>
<g id="a_Node000006"><a xlink:href="lserializing___node_8h.html" target="_top" xlink:title="This file defines the Node class.">
<polygon fill="white" stroke="#666666" points="893.88,-163.5 783.38,-163.5 783.38,-133 893.88,-133 893.88,-163.5"/>
<text text-anchor="start" x="791.38" y="-150" font-family="Helvetica,sans-Serif" font-size="10.00">lserializing/lserializing</text>
<text text-anchor="middle" x="838.62" y="-138.75" font-family="Helvetica,sans-Serif" font-size="10.00">_Node.h</text>
</a>
</g>
</g>
<!-- Node1&#45;&gt;Node6 -->
<g id="edge34_Node000001_Node000006" class="edge">
<title>Node1&#45;&gt;Node6</title>
<g id="a_edge34_Node000001_Node000006"><a xlink:title=" ">
<path fill="none" stroke="#63b8ff" d="M690.81,-320.82C734.73,-307.09 808.85,-276.29 838.62,-218.75 845.6,-205.27 845.72,-188.26 844.04,-174.44"/>
<polygon fill="#63b8ff" stroke="#63b8ff" points="847.36,-174.05 842.31,-164.73 840.45,-175.16 847.36,-174.05"/>
</a>
</g>
</g>
<!-- Node14 -->
<g id="Node000014" class="node">
<title>Node14</title>
<g id="a_Node000014"><a xlink:href="lserializing___serializable_data_8h.html" target="_top" xlink:title="This file defines the SerializableData class.">
<polygon fill="white" stroke="#666666" points="1000.88,-97 890.38,-97 890.38,-66.5 1000.88,-66.5 1000.88,-97"/>
<text text-anchor="start" x="898.38" y="-83.5" font-family="Helvetica,sans-Serif" font-size="10.00">lserializing/lserializing</text>
<text text-anchor="middle" x="945.62" y="-72.25" font-family="Helvetica,sans-Serif" font-size="10.00">_SerializableData.h</text>
</a>
</g>
</g>
<!-- Node1&#45;&gt;Node14 -->
<g id="edge42_Node000001_Node000014" class="edge">
<title>Node1&#45;&gt;Node14</title>
<g id="a_edge42_Node000001_Node000014"><a xlink:title=" ">
<path fill="none" stroke="#63b8ff" d="M692.02,-325.41C723.95,-320.03 771.06,-308.62 805.62,-285.25 872.86,-239.79 917.39,-150.34 935.89,-107.18"/>
<polygon fill="#63b8ff" stroke="#63b8ff" points="939.41,-108.84 940.04,-98.26 932.95,-106.14 939.41,-108.84"/>
</a>
</g>
</g>
<!-- Node15 -->
<g id="Node000015" class="node">
<title>Node15</title>
<g id="a_Node000015"><a xlink:href="lserializing___known_formats_8h.html" target="_top" xlink:title="This file defines the serializing::KnownFormats class.">
<polygon fill="white" stroke="#666666" points="568.25,-91.38 421,-91.38 421,-72.12 568.25,-72.12 568.25,-91.38"/>
<text text-anchor="middle" x="494.62" y="-77.88" font-family="Helvetica,sans-Serif" font-size="10.00">./lserializing_KnownFormats.h</text>
</a>
</g>
</g>
<!-- Node1&#45;&gt;Node15 -->
<g id="edge27_Node000001_Node000015" class="edge">
<title>Node1&#45;&gt;Node15</title>
<g id="a_edge27_Node000001_Node000015"><a xlink:title=" ">
<path fill="none" stroke="#63b8ff" d="M638.42,-320.81C624.2,-312.98 604.71,-300.54 591.62,-285.25 565.97,-255.28 520.26,-146.14 502.23,-101.73"/>
<polygon fill="#63b8ff" stroke="#63b8ff" points="505.17,-100.67 498.19,-92.7 498.68,-103.29 505.17,-100.67"/>
</a>
</g>
</g>
<!-- Node17 -->
<g id="Node000017" class="node">
<title>Node17</title>
<g id="a_Node000017"><a xlink:href="lserializing___printer_8h.html" target="_top" xlink:title="This file defines the serializing::Printer class.">
<polygon fill="white" stroke="#666666" points="810.12,-218.75 701.12,-218.75 701.12,-199.5 810.12,-199.5 810.12,-218.75"/>
<text text-anchor="middle" x="755.62" y="-205.25" font-family="Helvetica,sans-Serif" font-size="10.00">./lserializing_Printer.h</text>
</a>
</g>
</g>
<!-- Node1&#45;&gt;Node17 -->
<g id="edge35_Node000001_Node000017" class="edge">
<title>Node1&#45;&gt;Node17</title>
<g id="a_edge35_Node000001_Node000017"><a xlink:title=" ">
<path fill="none" stroke="#63b8ff" d="M674.92,-320.88C689.19,-313.1 708.71,-300.68 721.62,-285.25 735.53,-268.64 744.87,-245.43 750.19,-229.22"/>
<polygon fill="#63b8ff" stroke="#63b8ff" points="753.79,-230.43 753.36,-219.84 747.09,-228.38 753.79,-230.43"/>
</a>
</g>
</g>
<!-- Node18 -->
<g id="Node000018" class="node">
<title>Node18</title>
<g id="a_Node000018"><a xlink:href="lserializing___schema_8h.html" target="_top" xlink:title="This file defines the serializing::Schema class.">
<polygon fill="white" stroke="#666666" points="117.25,-218.75 0,-218.75 0,-199.5 117.25,-199.5 117.25,-218.75"/>
<text text-anchor="middle" x="58.62" y="-205.25" font-family="Helvetica,sans-Serif" font-size="10.00">./lserializing_Schema.h</text>
</a>
</g>
</g>
<!-- Node1&#45;&gt;Node18 -->
<g id="edge40_Node000001_Node000018" class="edge">
<title>Node1&#45;&gt;Node18</title>
<g id="a_edge40_Node000001_Node000018"><a xlink:title=" ">
<path fill="none" stroke="#63b8ff" d="M621.45,-322.83C521.69,-302.85 236.3,-245.71 114.65,-221.34"/>
<polygon fill="#63b8ff" stroke="#63b8ff" points="115.59,-217.76 105.1,-219.23 114.21,-224.63 115.59,-217.76"/>
</a>
</g>
</g>
<!-- Node19 -->
<g id="Node000019" class="node">
<title>Node19</title>
<g id="a_Node000019"><a xlink:href="lserializing___serializing_format_8h.html" target="_top" xlink:title="This file defines the serializing::Format class.">
<polygon fill="white" stroke="#666666" points="712.62,-285.25 600.62,-285.25 600.62,-254.75 712.62,-254.75 712.62,-285.25"/>
<text text-anchor="start" x="608.62" y="-271.75" font-family="Helvetica,sans-Serif" font-size="10.00">lserializing_Serializing</text>
<text text-anchor="middle" x="656.62" y="-260.5" font-family="Helvetica,sans-Serif" font-size="10.00">Format.h</text>
</a>
</g>
</g>
<!-- Node1&#45;&gt;Node19 -->
<g id="edge43_Node000001_Node000019" class="edge">
<title>Node1&#45;&gt;Node19</title>
<g id="a_edge43_Node000001_Node000019"><a xlink:title=" ">
<path fill="none" stroke="#63b8ff" d="M656.62,-320.93C656.62,-314.4 656.62,-305.2 656.62,-296.47"/>
<polygon fill="#63b8ff" stroke="#63b8ff" points="660.13,-296.53 656.62,-286.53 653.13,-296.53 660.13,-296.53"/>
</a>
</g>
</g>
<!-- Node3 -->
<g id="Node000003" class="node">
<title>Node3</title>
<g id="a_Node000003"><a xlink:title=" ">
<polygon fill="#e0e0e0" stroke="#999999" points="474.5,-24.88 412.75,-24.88 412.75,-5.63 474.5,-5.63 474.5,-24.88"/>
<text text-anchor="middle" x="443.62" y="-11.38" font-family="Helvetica,sans-Serif" font-size="10.00">type_traits</text>
</a>
</g>
</g>
<!-- Node2&#45;&gt;Node3 -->
<g id="edge2_Node000002_Node000003" class="edge">
<title>Node2&#45;&gt;Node3</title>
<g id="a_edge2_Node000002_Node000003"><a xlink:title=" ">
<path fill="none" stroke="#63b8ff" d="M465.86,-199C449.4,-181.17 414.39,-139.68 401.62,-97 397.74,-84.01 397,-79.24 401.62,-66.5 406.32,-53.57 415.95,-41.64 424.81,-32.65"/>
<polygon fill="#63b8ff" stroke="#63b8ff" points="426.73,-35.71 431.57,-26.28 421.91,-30.63 426.73,-35.71"/>
</a>
</g>
</g>
<!-- Node4 -->
<g id="Node000004" class="node">
<title>Node4</title>
<g id="a_Node000004"><a xlink:title=" ">
<polygon fill="#e0e0e0" stroke="#999999" points="629,-24.88 570.25,-24.88 570.25,-5.63 629,-5.63 629,-24.88"/>
<text text-anchor="middle" x="599.62" y="-11.38" font-family="Helvetica,sans-Serif" font-size="10.00">stdexcept</text>
</a>
</g>
</g>
<!-- Node2&#45;&gt;Node4 -->
<g id="edge3_Node000002_Node000004" class="edge">
<title>Node2&#45;&gt;Node4</title>
<g id="a_edge3_Node000002_Node000004"><a xlink:title=" ">
<path fill="none" stroke="#63b8ff" d="M486.12,-199.04C507.43,-181.59 553.11,-141.16 577.62,-97 588.29,-77.78 594.04,-53.08 596.95,-36.08"/>
<polygon fill="#63b8ff" stroke="#63b8ff" points="600.55,-36.67 598.6,-26.26 593.63,-35.62 600.55,-36.67"/>
</a>
</g>
</g>
<!-- Node5 -->
<g id="Node000005" class="node">
<title>Node5</title>
<g id="a_Node000005"><a xlink:title=" ">
<polygon fill="#e0e0e0" stroke="#999999" points="333.88,-30.5 223.38,-30.5 223.38,0 333.88,0 333.88,-30.5"/>
<text text-anchor="start" x="231.38" y="-17" font-family="Helvetica,sans-Serif" font-size="10.00">lserializing/lserializing</text>
<text text-anchor="middle" x="278.62" y="-5.75" font-family="Helvetica,sans-Serif" font-size="10.00">_Export.h</text>
</a>
</g>
</g>
<!-- Node2&#45;&gt;Node5 -->
<g id="edge4_Node000002_Node000005" class="edge">
<title>Node2&#45;&gt;Node5</title>
<g id="a_edge4_Node000002_Node000005"><a xlink:title=" ">
<path fill="none" stroke="#63b8ff" d="M430.81,-199.04C380.59,-186.02 300.59,-156.72 264.62,-97 254.35,-79.94 259.5,-57.4 266.27,-40.47"/>
<polygon fill="#63b8ff" stroke="#63b8ff" points="269.72,-42.31 270.58,-31.75 263.32,-39.48 269.72,-42.31"/>
</a>
</g>
</g>
<!-- Node2&#45;&gt;Node6 -->
<g id="edge5_Node000002_Node000006" class="edge">
<title>Node2&#45;&gt;Node6</title>
<g id="a_edge5_Node000002_Node000006"><a xlink:title=" ">
<path fill="none" stroke="#63b8ff" d="M530.7,-199.05C595.82,-188.52 703.12,-171.17 772.32,-159.98"/>
<polygon fill="#63b8ff" stroke="#63b8ff" points="772.77,-163.29 782.08,-158.23 771.65,-156.38 772.77,-163.29"/>
</a>
</g>
</g>
<!-- Node6&#45;&gt;Node3 -->
<g id="edge12_Node000006_Node000003" class="edge">
<title>Node6&#45;&gt;Node3</title>
<g id="a_edge12_Node000006_Node000003"><a xlink:title=" ">
<path fill="none" stroke="#63b8ff" d="M782.98,-142.66C670.12,-133.09 423.84,-110.74 411.62,-97 395.26,-78.6 412.79,-50.82 427.63,-33.11"/>
<polygon fill="#63b8ff" stroke="#63b8ff" points="429.53,-36.12 433.54,-26.31 424.29,-31.48 429.53,-36.12"/>
</a>
</g>
</g>
<!-- Node6&#45;&gt;Node4 -->
<g id="edge14_Node000006_Node000004" class="edge">
<title>Node6&#45;&gt;Node4</title>
<g id="a_edge14_Node000006_Node000004"><a xlink:title=" ">
<path fill="none" stroke="#63b8ff" d="M807.52,-132.67C787.16,-122.95 760.07,-109.66 736.62,-97 696.17,-75.15 650.37,-47.55 623.3,-30.93"/>
<polygon fill="#63b8ff" stroke="#63b8ff" points="625.57,-27.61 615.22,-25.34 621.9,-33.57 625.57,-27.61"/>
</a>
</g>
</g>
<!-- Node6&#45;&gt;Node5 -->
<g id="edge26_Node000006_Node000005" class="edge">
<title>Node6&#45;&gt;Node5</title>
<g id="a_edge26_Node000006_Node000005"><a xlink:title=" ">
<path fill="none" stroke="#63b8ff" d="M783.27,-144.08C681.9,-137.76 470.55,-121.98 401.62,-97 364.36,-83.49 327.08,-56.69 303.49,-37.67"/>
<polygon fill="#63b8ff" stroke="#63b8ff" points="306.1,-34.46 296.15,-30.81 301.65,-39.87 306.1,-34.46"/>
</a>
</g>
</g>
<!-- Node7 -->
<g id="Node000007" class="node">
<title>Node7</title>
<g id="a_Node000007"><a xlink:title=" ">
<polygon fill="#e0e0e0" stroke="#999999" points="781.38,-24.88 715.88,-24.88 715.88,-5.63 781.38,-5.63 781.38,-24.88"/>
<text text-anchor="middle" x="748.62" y="-11.38" font-family="Helvetica,sans-Serif" font-size="10.00">string_view</text>
</a>
</g>
</g>
<!-- Node6&#45;&gt;Node7 -->
<g id="edge6_Node000006_Node000007" class="edge">
<title>Node6&#45;&gt;Node7</title>
<g id="a_edge6_Node000006_Node000007"><a xlink:title=" ">
<path fill="none" stroke="#63b8ff" d="M833.61,-132.69C827.41,-115.83 815.77,-87.67 800.62,-66.5 791.49,-53.74 778.88,-41.46 768.36,-32.23"/>
<polygon fill="#63b8ff" stroke="#63b8ff" points="771.04,-29.06 761.15,-25.26 766.51,-34.4 771.04,-29.06"/>
</a>
</g>
</g>
<!-- Node8 -->
<g id="Node000008" class="node">
<title>Node8</title>
<g id="a_Node000008"><a xlink:title=" ">
<polygon fill="#e0e0e0" stroke="#999999" points="1175.62,-24.88 1135.62,-24.88 1135.62,-5.63 1175.62,-5.63 1175.62,-24.88"/>
<text text-anchor="middle" x="1155.62" y="-11.38" font-family="Helvetica,sans-Serif" font-size="10.00">string</text>
</a>
</g>
</g>
<!-- Node6&#45;&gt;Node8 -->
<g id="edge7_Node000006_Node000008" class="edge">
<title>Node6&#45;&gt;Node8</title>
<g id="a_edge7_Node000006_Node000008"><a xlink:title=" ">
<path fill="none" stroke="#63b8ff" d="M894.28,-143.84C943.42,-138.88 1015.73,-126.74 1071.62,-97 1101.11,-81.31 1127.5,-52.27 1142.53,-33.63"/>
<polygon fill="#63b8ff" stroke="#63b8ff" points="1145.73,-36.22 1149.13,-26.18 1140.21,-31.9 1145.73,-36.22"/>
</a>
</g>
</g>
<!-- Node9 -->
<g id="Node000009" class="node">
<title>Node9</title>
<g id="a_Node000009"><a xlink:title=" ">
<polygon fill="#e0e0e0" stroke="#999999" points="693.12,-24.88 650.12,-24.88 650.12,-5.63 693.12,-5.63 693.12,-24.88"/>
<text text-anchor="middle" x="671.62" y="-11.38" font-family="Helvetica,sans-Serif" font-size="10.00">vector</text>
</a>
</g>
</g>
<!-- Node6&#45;&gt;Node9 -->
<g id="edge8_Node000006_Node000009" class="edge">
<title>Node6&#45;&gt;Node9</title>
<g id="a_edge8_Node000006_Node000009"><a xlink:title=" ">
<path fill="none" stroke="#63b8ff" d="M820.12,-132.73C788.44,-107.89 724.13,-57.44 691.53,-31.86"/>
<polygon fill="#63b8ff" stroke="#63b8ff" points="694.26,-28.77 684.23,-25.35 689.94,-34.28 694.26,-28.77"/>
</a>
</g>
</g>
<!-- Node10 -->
<g id="Node000010" class="node">
<title>Node10</title>
<g id="a_Node000010"><a xlink:title=" ">
<polygon fill="#e0e0e0" stroke="#999999" points="1044,-24.88 1009.25,-24.88 1009.25,-5.63 1044,-5.63 1044,-24.88"/>
<text text-anchor="middle" x="1026.62" y="-11.38" font-family="Helvetica,sans-Serif" font-size="10.00">map</text>
</a>
</g>
</g>
<!-- Node6&#45;&gt;Node10 -->
<g id="edge9_Node000006_Node000010" class="edge">
<title>Node6&#45;&gt;Node10</title>
<g id="a_edge9_Node000006_Node000010"><a xlink:title=" ">
<path fill="none" stroke="#63b8ff" d="M893.98,-139.96C943.42,-132.17 1010.47,-118.04 1026.62,-97 1039.87,-79.75 1037.06,-53.76 1032.79,-35.95"/>
<polygon fill="#63b8ff" stroke="#63b8ff" points="1035.91,-35.07 1029.86,-26.37 1029.16,-36.94 1035.91,-35.07"/>
</a>
</g>
</g>
<!-- Node11 -->
<g id="Node000011" class="node">
<title>Node11</title>
<g id="a_Node000011"><a xlink:title=" ">
<polygon fill="#e0e0e0" stroke="#999999" points="1114.25,-24.88 1069,-24.88 1069,-5.63 1114.25,-5.63 1114.25,-24.88"/>
<text text-anchor="middle" x="1091.62" y="-11.38" font-family="Helvetica,sans-Serif" font-size="10.00">variant</text>
</a>
</g>
</g>
<!-- Node6&#45;&gt;Node11 -->
<g id="edge10_Node000006_Node000011" class="edge">
<title>Node6&#45;&gt;Node11</title>
<g id="a_edge10_Node000006_Node000011"><a xlink:title=" ">
<path fill="none" stroke="#63b8ff" d="M894.27,-145.59C939.13,-141.66 1001.76,-130.04 1045.62,-97 1066.12,-81.57 1078.9,-54.15 1085.64,-35.6"/>
<polygon fill="#63b8ff" stroke="#63b8ff" points="1089.21,-36.97 1089.08,-26.37 1082.57,-34.74 1089.21,-36.97"/>
</a>
</g>
</g>
<!-- Node12 -->
<g id="Node000012" class="node">
<title>Node12</title>
<g id="a_Node000012"><a xlink:title=" ">
<polygon fill="#e0e0e0" stroke="#999999" points="891.25,-24.88 852,-24.88 852,-5.63 891.25,-5.63 891.25,-24.88"/>
<text text-anchor="middle" x="871.62" y="-11.38" font-family="Helvetica,sans-Serif" font-size="10.00">utility</text>
</a>
</g>
</g>
<!-- Node6&#45;&gt;Node12 -->
<g id="edge11_Node000006_Node000012" class="edge">
<title>Node6&#45;&gt;Node12</title>
<g id="a_edge11_Node000006_Node000012"><a xlink:title=" ">
<path fill="none" stroke="#63b8ff" d="M842.28,-132.73C848.22,-109.16 859.96,-62.54 866.65,-35.99"/>
<polygon fill="#63b8ff" stroke="#63b8ff" points="870.28,-36.9 869.33,-26.35 863.5,-35.19 870.28,-36.9"/>
</a>
</g>
</g>
<!-- Node13 -->
<g id="Node000013" class="node">
<title>Node13</title>
<g id="a_Node000013"><a xlink:title=" ">
<polygon fill="#e0e0e0" stroke="#999999" points="976.62,-24.88 918.62,-24.88 918.62,-5.63 976.62,-5.63 976.62,-24.88"/>
<text text-anchor="middle" x="947.62" y="-11.38" font-family="Helvetica,sans-Serif" font-size="10.00">functional</text>
</a>
</g>
</g>
<!-- Node6&#45;&gt;Node13 -->
<g id="edge13_Node000006_Node000013" class="edge">
<title>Node6&#45;&gt;Node13</title>
<g id="a_edge13_Node000006_Node000013"><a xlink:title=" ">
<path fill="none" stroke="#63b8ff" d="M894.26,-138.26C938.65,-129.83 995.63,-115.7 1009.62,-97 1027.02,-73.76 996.59,-47.11 972.53,-30.99"/>
<polygon fill="#63b8ff" stroke="#63b8ff" points="974.73,-27.6 964.42,-25.16 970.95,-33.49 974.73,-27.6"/>
</a>
</g>
</g>
<!-- Node6&#45;&gt;Node14 -->
<g id="edge15_Node000006_Node000014" class="edge">
<title>Node6&#45;&gt;Node14</title>
<g id="a_edge15_Node000006_Node000014"><a xlink:title=" ">
<path fill="none" stroke="#63b8ff" d="M862.9,-132.61C877.54,-123.79 896.39,-112.43 912.4,-102.78"/>
<polygon fill="#63b8ff" stroke="#63b8ff" points="913.68,-105.49 920.44,-97.33 910.07,-99.49 913.68,-105.49"/>
</a>
</g>
</g>
<!-- Node14&#45;&gt;Node3 -->
<g id="edge22_Node000014_Node000003" class="edge">
<title>Node14&#45;&gt;Node3</title>
<g id="a_edge22_Node000014_Node000003"><a xlink:title=" ">
<path fill="none" stroke="#63b8ff" d="M889.98,-73.6C788.63,-60.58 576.07,-33.27 485.71,-21.66"/>
<polygon fill="#63b8ff" stroke="#63b8ff" points="486.17,-18.06 475.81,-20.26 485.28,-25 486.17,-18.06"/>
</a>
</g>
</g>
<!-- Node14&#45;&gt;Node4 -->
<g id="edge24_Node000014_Node000004" class="edge">
<title>Node14&#45;&gt;Node4</title>
<g id="a_edge24_Node000014_Node000004"><a xlink:title=" ">
<path fill="none" stroke="#63b8ff" d="M889.94,-74.48C828.34,-66.88 726.44,-52.31 640.62,-30.5 638.31,-29.91 635.94,-29.25 633.57,-28.54"/>
<polygon fill="#63b8ff" stroke="#63b8ff" points="634.85,-24.96 624.26,-25.24 632.72,-31.63 634.85,-24.96"/>
</a>
</g>
</g>
<!-- Node14&#45;&gt;Node5 -->
<g id="edge25_Node000014_Node000005" class="edge">
<title>Node14&#45;&gt;Node5</title>
<g id="a_edge25_Node000014_Node000005"><a xlink:title=" ">
<path fill="none" stroke="#63b8ff" d="M890.19,-76C792.04,-67.5 581.29,-48.86 403.62,-30.5 384.65,-28.54 364.06,-26.26 345.18,-24.1"/>
<polygon fill="#63b8ff" stroke="#63b8ff" points="345.62,-20.51 335.29,-22.85 344.82,-27.47 345.62,-20.51"/>
</a>
</g>
</g>
<!-- Node14&#45;&gt;Node7 -->
<g id="edge16_Node000014_Node000007" class="edge">
<title>Node14&#45;&gt;Node7</title>
<g id="a_edge16_Node000014_Node000007"><a xlink:title=" ">
<path fill="none" stroke="#63b8ff" d="M900.92,-66.11C866.4,-54.81 819.16,-39.35 786.49,-28.65"/>
<polygon fill="#63b8ff" stroke="#63b8ff" points="788.02,-25.14 777.43,-25.35 785.85,-31.79 788.02,-25.14"/>
</a>
</g>
</g>
<!-- Node14&#45;&gt;Node8 -->
<g id="edge17_Node000014_Node000008" class="edge">
<title>Node14&#45;&gt;Node8</title>
<g id="a_edge17_Node000014_Node000008"><a xlink:title=" ">
<path fill="none" stroke="#63b8ff" d="M1001.2,-67.26C1036.64,-58.12 1083.31,-45.08 1123.62,-30.5 1124.55,-30.17 1125.49,-29.82 1126.43,-29.45"/>
<polygon fill="#63b8ff" stroke="#63b8ff" points="1127.61,-32.34 1135.52,-25.3 1124.94,-25.87 1127.61,-32.34"/>
</a>
</g>
</g>
<!-- Node14&#45;&gt;Node9 -->
<g id="edge18_Node000014_Node000009" class="edge">
<title>Node14&#45;&gt;Node9</title>
<g id="a_edge18_Node000014_Node000009"><a xlink:title=" ">
<path fill="none" stroke="#63b8ff" d="M890.34,-72.03C841.43,-63.63 768.46,-49.42 706.62,-30.5 705.14,-30.04 703.62,-29.55 702.1,-29.03"/>
<polygon fill="#63b8ff" stroke="#63b8ff" points="703.72,-25.53 693.13,-25.31 701.28,-32.09 703.72,-25.53"/>
</a>
</g>
</g>
<!-- Node14&#45;&gt;Node10 -->
<g id="edge19_Node000014_Node000010" class="edge">
<title>Node14&#45;&gt;Node10</title>
<g id="a_edge19_Node000014_Node000010"><a xlink:title=" ">
<path fill="none" stroke="#63b8ff" d="M964.01,-66.11C976.9,-55.85 994.11,-42.14 1007.22,-31.7"/>
<polygon fill="#63b8ff" stroke="#63b8ff" points="1008.9,-34.04 1014.55,-25.07 1004.54,-28.56 1008.9,-34.04"/>
</a>
</g>
</g>
<!-- Node14&#45;&gt;Node11 -->
<g id="edge20_Node000014_Node000011" class="edge">
<title>Node14&#45;&gt;Node11</title>
<g id="a_edge20_Node000014_Node000011"><a xlink:title=" ">
<path fill="none" stroke="#63b8ff" d="M978.75,-66.11C1003.53,-55.17 1037.13,-40.32 1061.22,-29.68"/>
<polygon fill="#63b8ff" stroke="#63b8ff" points="1062.5,-32.5 1070.23,-25.26 1059.67,-26.1 1062.5,-32.5"/>
</a>
</g>
</g>
<!-- Node14&#45;&gt;Node12 -->
<g id="edge21_Node000014_Node000012" class="edge">
<title>Node14&#45;&gt;Node12</title>
<g id="a_edge21_Node000014_Node000012"><a xlink:title=" ">
<path fill="none" stroke="#63b8ff" d="M928.83,-66.11C917.17,-55.94 901.63,-42.41 889.7,-32"/>
<polygon fill="#63b8ff" stroke="#63b8ff" points="892.59,-29 882.75,-25.07 887.99,-34.28 892.59,-29"/>
</a>
</g>
</g>
<!-- Node14&#45;&gt;Node13 -->
<g id="edge23_Node000014_Node000013" class="edge">
<title>Node14&#45;&gt;Node13</title>
<g id="a_edge23_Node000014_Node000013"><a xlink:title=" ">
<path fill="none" stroke="#63b8ff" d="M946.08,-66.11C946.36,-57.13 946.72,-45.51 947.02,-35.76"/>
<polygon fill="#63b8ff" stroke="#63b8ff" points="950.54,-36.18 947.35,-26.07 943.54,-35.96 950.54,-36.18"/>
</a>
</g>
</g>
<!-- Node15&#45;&gt;Node3 -->
<g id="edge30_Node000015_Node000003" class="edge">
<title>Node15&#45;&gt;Node3</title>
<g id="a_edge30_Node000015_Node000003"><a xlink:title=" ">
<path fill="none" stroke="#63b8ff" d="M487.53,-71.78C479.77,-61.96 467.13,-45.98 457.4,-33.67"/>
<polygon fill="#63b8ff" stroke="#63b8ff" points="459.6,-31.82 450.66,-26.14 454.11,-36.16 459.6,-31.82"/>
</a>
</g>
</g>
<!-- Node15&#45;&gt;Node4 -->
<g id="edge28_Node000015_Node000004" class="edge">
<title>Node15&#45;&gt;Node4</title>
<g id="a_edge28_Node000015_Node000004"><a xlink:title=" ">
<path fill="none" stroke="#63b8ff" d="M509.22,-71.78C526.37,-61.25 555.05,-43.63 575.51,-31.06"/>
<polygon fill="#63b8ff" stroke="#63b8ff" points="577.12,-33.57 583.81,-25.35 573.46,-27.6 577.12,-33.57"/>
</a>
</g>
</g>
<!-- Node15&#45;&gt;Node5 -->
<g id="edge33_Node000015_Node000005" class="edge">
<title>Node15&#45;&gt;Node5</title>
<g id="a_edge33_Node000015_Node000005"><a xlink:title=" ">
<path fill="none" stroke="#63b8ff" d="M464.14,-71.65C431.51,-61.9 378.93,-46.2 338.07,-34"/>
<polygon fill="#63b8ff" stroke="#63b8ff" points="339.27,-30.41 328.68,-30.9 337.26,-37.11 339.27,-30.41"/>
</a>
</g>
</g>
<!-- Node15&#45;&gt;Node7 -->
<g id="edge31_Node000015_Node000007" class="edge">
<title>Node15&#45;&gt;Node7</title>
<g id="a_edge31_Node000015_Node000007"><a xlink:title=" ">
<path fill="none" stroke="#63b8ff" d="M534.87,-71.69C576.7,-62.1 644,-46.22 701.62,-30.5 704.09,-29.83 706.62,-29.12 709.17,-28.39"/>
<polygon fill="#63b8ff" stroke="#63b8ff" points="710.01,-31.5 718.62,-25.32 708.03,-24.78 710.01,-31.5"/>
</a>
</g>
</g>
<!-- Node15&#45;&gt;Node9 -->
<g id="edge32_Node000015_Node000009" class="edge">
<title>Node15&#45;&gt;Node9</title>
<g id="a_edge32_Node000015_Node000009"><a xlink:title=" ">
<path fill="none" stroke="#63b8ff" d="M521.95,-71.68C550.86,-61.97 597.72,-45.86 637.62,-30.5 638.54,-30.15 639.47,-29.79 640.4,-29.42"/>
<polygon fill="#63b8ff" stroke="#63b8ff" points="641.53,-32.33 649.48,-25.34 638.9,-25.85 641.53,-32.33"/>
</a>
</g>
</g>
<!-- Node16 -->
<g id="Node000016" class="node">
<title>Node16</title>
<g id="a_Node000016"><a xlink:title=" ">
<polygon fill="#e0e0e0" stroke="#999999" points="179.25,-24.88 128,-24.88 128,-5.63 179.25,-5.63 179.25,-24.88"/>
<text text-anchor="middle" x="153.62" y="-11.38" font-family="Helvetica,sans-Serif" font-size="10.00">memory</text>
</a>
</g>
</g>
<!-- Node15&#45;&gt;Node16 -->
<g id="edge29_Node000015_Node000016" class="edge">
<title>Node15&#45;&gt;Node16</title>
<g id="a_edge29_Node000015_Node000016"><a xlink:title=" ">
<path fill="none" stroke="#63b8ff" d="M438.95,-71.63C382.32,-62.16 292.14,-46.5 214.62,-30.5 206.72,-28.87 198.26,-26.98 190.25,-25.13"/>
<polygon fill="#63b8ff" stroke="#63b8ff" points="191.22,-21.53 180.68,-22.65 189.62,-28.34 191.22,-21.53"/>
</a>
</g>
</g>
<!-- Node17&#45;&gt;Node5 -->
<g id="edge38_Node000017_Node000005" class="edge">
<title>Node17&#45;&gt;Node5</title>
<g id="a_edge38_Node000017_Node000005"><a xlink:title=" ">
<path fill="none" stroke="#63b8ff" d="M700.63,-204.6C616.53,-196.89 453.82,-172.6 340.62,-97 319.17,-82.67 302.02,-58.43 291.25,-40.24"/>
<polygon fill="#63b8ff" stroke="#63b8ff" points="293.91,-38.83 285.93,-31.86 287.82,-42.28 293.91,-38.83"/>
</a>
</g>
</g>
<!-- Node17&#45;&gt;Node6 -->
<g id="edge39_Node000017_Node000006" class="edge">
<title>Node17&#45;&gt;Node6</title>
<g id="a_edge39_Node000017_Node000006"><a xlink:title=" ">
<path fill="none" stroke="#63b8ff" d="M768.23,-199.18C779.09,-191.48 795.2,-180.05 809.27,-170.08"/>
<polygon fill="#63b8ff" stroke="#63b8ff" points="811.01,-172.42 817.14,-163.78 806.96,-166.71 811.01,-172.42"/>
</a>
</g>
</g>
<!-- Node17&#45;&gt;Node7 -->
<g id="edge36_Node000017_Node000007" class="edge">
<title>Node17&#45;&gt;Node7</title>
<g id="a_edge36_Node000017_Node000007"><a xlink:title=" ">
<path fill="none" stroke="#63b8ff" d="M755.3,-199.13C754.23,-169.85 750.84,-76.85 749.34,-35.91"/>
<polygon fill="#63b8ff" stroke="#63b8ff" points="752.81,-35.87 748.94,-26.01 745.81,-36.13 752.81,-35.87"/>
</a>
</g>
</g>
<!-- Node17&#45;&gt;Node8 -->
<g id="edge37_Node000017_Node000008" class="edge">
<title>Node17&#45;&gt;Node8</title>
<g id="a_edge37_Node000017_Node000008"><a xlink:title=" ">
<path fill="none" stroke="#63b8ff" d="M810.33,-202.76C884.32,-193.03 1017.18,-166.56 1105.62,-97 1126.23,-80.79 1140.53,-53.57 1148.41,-35.26"/>
<polygon fill="#63b8ff" stroke="#63b8ff" points="1151.97,-36.78 1152.48,-26.2 1145.48,-34.15 1151.97,-36.78"/>
</a>
</g>
</g>
<!-- Node18&#45;&gt;Node5 -->
<g id="edge41_Node000018_Node000005" class="edge">
<title>Node18&#45;&gt;Node5</title>
<g id="a_edge41_Node000018_Node000005"><a xlink:title=" ">
<path fill="none" stroke="#63b8ff" d="M65.13,-199.25C82.88,-175.49 134.42,-109.33 188.62,-66.5 203.39,-54.83 221.22,-44.27 237.09,-35.87"/>
<polygon fill="#63b8ff" stroke="#63b8ff" points="238.39,-38.63 245.68,-30.94 235.19,-32.4 238.39,-38.63"/>
</a>
</g>
</g>
<!-- Node19&#45;&gt;Node5 -->
<g id="edge48_Node000019_Node000005" class="edge">
<title>Node19&#45;&gt;Node5</title>
<g id="a_edge48_Node000019_Node000005"><a xlink:title=" ">
<path fill="none" stroke="#63b8ff" d="M600.24,-267.74C521.7,-262.98 379.37,-243.08 293.62,-163.5 259.69,-132 245.76,-111.74 255.62,-66.5 257.58,-57.54 261.28,-48.26 265.16,-40.15"/>
<polygon fill="#63b8ff" stroke="#63b8ff" points="268.59,-42.12 270.03,-31.62 262.36,-38.93 268.59,-42.12"/>
</a>
</g>
</g>
<!-- Node19&#45;&gt;Node6 -->
<g id="edge49_Node000019_Node000006" class="edge">
<title>Node19&#45;&gt;Node6</title>
<g id="a_edge49_Node000019_Node000006"><a xlink:title=" ">
<path fill="none" stroke="#63b8ff" d="M713.12,-264.85C747.92,-259.38 791.01,-246.94 818.62,-218.75 830.06,-207.07 835.04,-189.3 837.17,-174.65"/>
<polygon fill="#63b8ff" stroke="#63b8ff" points="840.75,-175.06 838.34,-164.74 833.79,-174.31 840.75,-175.06"/>
</a>
</g>
</g>
<!-- Node19&#45;&gt;Node7 -->
<g id="edge45_Node000019_Node000007" class="edge">
<title>Node19&#45;&gt;Node7</title>
<g id="a_edge45_Node000019_Node000007"><a xlink:title=" ">
<path fill="none" stroke="#63b8ff" d="M661.97,-254.32C677.73,-211.01 724.04,-83.8 741.69,-35.32"/>
<polygon fill="#63b8ff" stroke="#63b8ff" points="745.21,-36.85 745.35,-26.26 738.64,-34.46 745.21,-36.85"/>
</a>
</g>
</g>
<!-- Node19&#45;&gt;Node8 -->
<g id="edge44_Node000019_Node000008" class="edge">
<title>Node19&#45;&gt;Node8</title>
<g id="a_edge44_Node000019_Node000008"><a xlink:title=" ">
<path fill="none" stroke="#63b8ff" d="M713.11,-258.36C787.45,-243.16 921.14,-211.63 1027.62,-163.5 1077.96,-140.75 1099.55,-141.25 1132.62,-97 1146.03,-79.06 1151.63,-53.57 1153.96,-36.05"/>
<polygon fill="#63b8ff" stroke="#63b8ff" points="1157.55,-36.48 1155.13,-26.16 1150.59,-35.73 1157.55,-36.48"/>
</a>
</g>
</g>
<!-- Node19&#45;&gt;Node9 -->
<g id="edge46_Node000019_Node000009" class="edge">
<title>Node19&#45;&gt;Node9</title>
<g id="a_edge46_Node000019_Node000009"><a xlink:title=" ">
<path fill="none" stroke="#63b8ff" d="M656.87,-254.35C657.14,-240.28 657.68,-218.43 658.62,-199.5 661.6,-139.9 667.17,-69.54 669.95,-35.98"/>
<polygon fill="#63b8ff" stroke="#63b8ff" points="673.52,-36.27 670.87,-26.02 666.55,-35.69 673.52,-36.27"/>
</a>
</g>
</g>
<!-- Node19&#45;&gt;Node16 -->
<g id="edge47_Node000019_Node000016" class="edge">
<title>Node19&#45;&gt;Node16</title>
<g id="a_edge47_Node000019_Node000016"><a xlink:title=" ">
<path fill="none" stroke="#63b8ff" d="M600.41,-267.87C535.35,-264.82 426.09,-254.27 339.62,-218.75 250.67,-182.2 186.53,-77.77 163.24,-34.93"/>
<polygon fill="#63b8ff" stroke="#63b8ff" points="165.87,-33.42 158.1,-26.23 159.69,-36.7 165.87,-33.42"/>
</a>
</g>
</g>
<!-- Node19&#45;&gt;Node17 -->
<g id="edge50_Node000019_Node000017" class="edge">
<title>Node19&#45;&gt;Node17</title>
<g id="a_edge50_Node000019_Node000017"><a xlink:title=" ">
<path fill="none" stroke="#63b8ff" d="M681.35,-254.3C696.57,-245.24 716.01,-233.69 731.18,-224.66"/>
<polygon fill="#63b8ff" stroke="#63b8ff" points="732.64,-227.27 739.44,-219.15 729.06,-221.26 732.64,-227.27"/>
</a>
</g>
</g>
<!-- Node19&#45;&gt;Node18 -->
<g id="edge51_Node000019_Node000018" class="edge">
<title>Node19&#45;&gt;Node18</title>
<g id="a_edge51_Node000019_Node000018"><a xlink:title=" ">
<path fill="none" stroke="#63b8ff" d="M600.26,-264.02C504.07,-255.42 302.1,-236.98 131.62,-218.75 130.48,-218.63 129.33,-218.5 128.17,-218.38"/>
<polygon fill="#63b8ff" stroke="#63b8ff" points="128.9,-214.83 118.58,-217.2 128.13,-221.78 128.9,-214.83"/>
</a>
</g>
</g>
</g>
</svg>
