<?xml version="1.0" encoding="UTF-8" standalone="no"?>
<!DOCTYPE svg PUBLIC "-//W3C//DTD SVG 1.1//EN"
 "http://www.w3.org/Graphics/SVG/1.1/DTD/svg11.dtd">
<!-- Generated by graphviz version 8.0.5 (20230430.1635)
 -->
<!-- Title: lserializing_Enums.h Pages: 1 -->
<svg width="728pt" height="227pt"
 viewBox="0.00 0.00 727.88 226.75" xmlns="http://www.w3.org/2000/svg" xmlns:xlink="http://www.w3.org/1999/xlink">
<g id="graph0" class="graph" transform="scale(1 1) rotate(0) translate(4 222.75)">
<title>lserializing_Enums.h</title>
<!-- Node1 -->
<g id="Node000001" class="node">
<title>Node1</title>
<g id="a_Node000001"><a xlink:title="Utilities for serializing enum values.">
<polygon fill="#999999" stroke="#666666" points="184.88,-218.75 78.88,-218.75 78.88,-199.5 184.88,-199.5 184.88,-218.75"/>
<text text-anchor="middle" x="131.88" y="-205.25" font-family="Helvetica,sans-Serif" font-size="10.00">lserializing_Enums.h</text>
</a>
</g>
</g>
<!-- Node2 -->
<g id="Node000002" class="node">
<title>Node2</title>
<g id="a_Node000002"><a xlink:title=" ">
<polygon fill="#e0e0e0" stroke="#999999" points="61.75,-24.88 0,-24.88 0,-5.63 61.75,-5.63 61.75,-24.88"/>
<text text-anchor="middle" x="30.88" y="-11.38" font-family="Helvetica,sans-Serif" font-size="10.00">type_traits</text>
</a>
</g>
</g>
<!-- Node1&#45;&gt;Node2 -->
<g id="edge1_Node000001_Node000002" class="edge">
<title>Node1&#45;&gt;Node2</title>
<g id="a_edge1_Node000001_Node000002"><a xlink:title=" ">
<path fill="none" stroke="#63b8ff" d="M127.14,-199.13C111.56,-169.54 61.71,-74.84 40.54,-34.61"/>
<polygon fill="#63b8ff" stroke="#63b8ff" points="43.24,-33.23 35.48,-26.01 37.05,-36.49 43.24,-33.23"/>
</a>
</g>
</g>
<!-- Node3 -->
<g id="Node000003" class="node">
<title>Node3</title>
<g id="a_Node000003"><a xlink:title=" ">
<polygon fill="#e0e0e0" stroke="#999999" points="138.25,-24.88 79.5,-24.88 79.5,-5.63 138.25,-5.63 138.25,-24.88"/>
<text text-anchor="middle" x="108.88" y="-11.38" font-family="Helvetica,sans-Serif" font-size="10.00">stdexcept</text>
</a>
</g>
</g>
<!-- Node1&#45;&gt;Node3 -->
<g id="edge2_Node000001_Node000003" class="edge">
<title>Node1&#45;&gt;Node3</title>
<g id="a_edge2_Node000001_Node000003"><a xlink:title=" ">
<path fill="none" stroke="#63b8ff" d="M130.8,-199.13C127.29,-169.85 116.14,-76.85 111.23,-35.91"/>
<polygon fill="#63b8ff" stroke="#63b8ff" points="114.59,-35.52 109.92,-26.01 107.64,-36.35 114.59,-35.52"/>
</a>
</g>
</g>
<!-- Node4 -->
<g id="Node000004" class="node">
<title>Node4</title>
<g id="a_Node000004"><a xlink:title=" ">
<polygon fill="#e0e0e0" stroke="#999999" points="267.12,-30.5 156.62,-30.5 156.62,0 267.12,0 267.12,-30.5"/>
<text text-anchor="start" x="164.62" y="-17" font-family="Helvetica,sans-Serif" font-size="10.00">lserializing/lserializing</text>
<text text-anchor="middle" x="211.88" y="-5.75" font-family="Helvetica,sans-Serif" font-size="10.00">_Export.h</text>
</a>
</g>
</g>
<!-- Node1&#45;&gt;Node4 -->
<g id="edge3_Node000001_Node000004" class="edge">
<title>Node1&#45;&gt;Node4</title>
<g id="a_edge3_Node000001_Node000004"><a xlink:title=" ">
<path fill="none" stroke="#63b8ff" d="M135.63,-199.13C147.36,-170.99 183.64,-83.96 201.6,-40.9"/>
<polygon fill="#63b8ff" stroke="#63b8ff" points="205.12,-42.54 205.74,-31.96 198.66,-39.84 205.12,-42.54"/>
</a>
</g>
</g>
<!-- Node5 -->
<g id="Node000005" class="node">
<title>Node5</title>
<g id="a_Node000005"><a xlink:href="lserializing___node_8h.html" target="_top" xlink:title="This file defines the Node class.">
<polygon fill="white" stroke="#666666" points="418.12,-163.5 307.62,-163.5 307.62,-133 418.12,-133 418.12,-163.5"/>
<text text-anchor="start" x="315.62" y="-150" font-family="Helvetica,sans-Serif" font-size="10.00">lserializing/lserializing</text>
<text text-anchor="middle" x="362.88" y="-138.75" font-family="Helvetica,sans-Serif" font-size="10.00">_Node.h</text>
</a>
</g>
</g>
<!-- Node1&#45;&gt;Node5 -->
<g id="edge4_Node000001_Node000005" class="edge">
<title>Node1&#45;&gt;Node5</title>
<g id="a_edge4_Node000001_Node000005"><a xlink:title=" ">
<path fill="none" stroke="#63b8ff" d="M167.46,-199.05C201.88,-190.28 254.87,-176.78 296.99,-166.04"/>
<polygon fill="#63b8ff" stroke="#63b8ff" points="297.62,-169.24 306.44,-163.38 295.89,-162.46 297.62,-169.24"/>
</a>
</g>
</g>
<!-- Node5&#45;&gt;Node2 -->
<g id="edge11_Node000005_Node000002" class="edge">
<title>Node5&#45;&gt;Node2</title>
<g id="a_edge11_Node000005_Node000002"><a xlink:title=" ">
<path fill="none" stroke="#63b8ff" d="M313.83,-132.6C283.58,-123.21 244.14,-110.31 209.88,-97 155.35,-75.82 93.52,-46.76 58.65,-29.9"/>
<polygon fill="#63b8ff" stroke="#63b8ff" points="60.68,-26.5 50.15,-25.28 57.62,-32.8 60.68,-26.5"/>
</a>
</g>
</g>
<!-- Node5&#45;&gt;Node3 -->
<g id="edge13_Node000005_Node000003" class="edge">
<title>Node5&#45;&gt;Node3</title>
<g id="a_edge13_Node000005_Node000003"><a xlink:title=" ">
<path fill="none" stroke="#63b8ff" d="M334.72,-132.73C285.52,-107.36 184.53,-55.27 136.03,-30.26"/>
<polygon fill="#63b8ff" stroke="#63b8ff" points="138.01,-26.82 127.52,-25.35 134.8,-33.05 138.01,-26.82"/>
</a>
</g>
</g>
<!-- Node5&#45;&gt;Node4 -->
<g id="edge25_Node000005_Node000004" class="edge">
<title>Node5&#45;&gt;Node4</title>
<g id="a_edge25_Node000005_Node000004"><a xlink:title=" ">
<path fill="none" stroke="#63b8ff" d="M346.14,-132.73C319.61,-109.71 267.74,-64.72 236.82,-37.89"/>
<polygon fill="#63b8ff" stroke="#63b8ff" points="239.53,-34.74 229.69,-30.83 234.95,-40.03 239.53,-34.74"/>
</a>
</g>
</g>
<!-- Node6 -->
<g id="Node000006" class="node">
<title>Node6</title>
<g id="a_Node000006"><a xlink:title=" ">
<polygon fill="#e0e0e0" stroke="#999999" points="350.62,-24.88 285.12,-24.88 285.12,-5.63 350.62,-5.63 350.62,-24.88"/>
<text text-anchor="middle" x="317.88" y="-11.38" font-family="Helvetica,sans-Serif" font-size="10.00">string_view</text>
</a>
</g>
</g>
<!-- Node5&#45;&gt;Node6 -->
<g id="edge5_Node000005_Node000006" class="edge">
<title>Node5&#45;&gt;Node6</title>
<g id="a_edge5_Node000005_Node000006"><a xlink:title=" ">
<path fill="none" stroke="#63b8ff" d="M352.91,-132.93C346.58,-123.2 338.69,-109.82 333.88,-97 326.27,-76.76 322.06,-52.24 319.9,-35.57"/>
<polygon fill="#63b8ff" stroke="#63b8ff" points="323.3,-35.52 318.66,-25.99 316.35,-36.33 323.3,-35.52"/>
</a>
</g>
</g>
<!-- Node7 -->
<g id="Node000007" class="node">
<title>Node7</title>
<g id="a_Node000007"><a xlink:title=" ">
<polygon fill="#e0e0e0" stroke="#999999" points="408.88,-24.88 368.88,-24.88 368.88,-5.63 408.88,-5.63 408.88,-24.88"/>
<text text-anchor="middle" x="388.88" y="-11.38" font-family="Helvetica,sans-Serif" font-size="10.00">string</text>
</a>
</g>
</g>
<!-- Node5&#45;&gt;Node7 -->
<g id="edge6_Node000005_Node000007" class="edge">
<title>Node5&#45;&gt;Node7</title>
<g id="a_edge6_Node000005_Node000007"><a xlink:title=" ">
<path fill="none" stroke="#63b8ff" d="M353.3,-132.63C343.82,-116.19 331.9,-88.89 340.88,-66.5 346.29,-52.99 357.26,-41.05 367.35,-32.21"/>
<polygon fill="#63b8ff" stroke="#63b8ff" points="369.31,-34.31 374.83,-25.27 364.88,-28.89 369.31,-34.31"/>
</a>
</g>
</g>
<!-- Node8 -->
<g id="Node000008" class="node">
<title>Node8</title>
<g id="a_Node000008"><a xlink:title=" ">
<polygon fill="#e0e0e0" stroke="#999999" points="470.38,-24.88 427.38,-24.88 427.38,-5.63 470.38,-5.63 470.38,-24.88"/>
<text text-anchor="middle" x="448.88" y="-11.38" font-family="Helvetica,sans-Serif" font-size="10.00">vector</text>
</a>
</g>
</g>
<!-- Node5&#45;&gt;Node8 -->
<g id="edge7_Node000005_Node000008" class="edge">
<title>Node5&#45;&gt;Node8</title>
<g id="a_edge7_Node000005_Node000008"><a xlink:title=" ">
<path fill="none" stroke="#63b8ff" d="M418.35,-134.18C437.75,-126.66 457.5,-114.99 468.88,-97 481.14,-77.61 470.49,-51.2 460.63,-33.94"/>
<polygon fill="#63b8ff" stroke="#63b8ff" points="463.33,-32.64 455.1,-25.96 457.37,-36.31 463.33,-32.64"/>
</a>
</g>
</g>
<!-- Node9 -->
<g id="Node000009" class="node">
<title>Node9</title>
<g id="a_Node000009"><a xlink:title=" ">
<polygon fill="#e0e0e0" stroke="#999999" points="523.25,-24.88 488.5,-24.88 488.5,-5.63 523.25,-5.63 523.25,-24.88"/>
<text text-anchor="middle" x="505.88" y="-11.38" font-family="Helvetica,sans-Serif" font-size="10.00">map</text>
</a>
</g>
</g>
<!-- Node5&#45;&gt;Node9 -->
<g id="edge8_Node000005_Node000009" class="edge">
<title>Node5&#45;&gt;Node9</title>
<g id="a_edge8_Node000005_Node000009"><a xlink:title=" ">
<path fill="none" stroke="#63b8ff" d="M418.55,-136.38C442.4,-129.03 468.68,-116.89 485.88,-97 500.53,-80.04 504.77,-53.97 505.83,-36.07"/>
<polygon fill="#63b8ff" stroke="#63b8ff" points="509.36,-36.29 506.15,-26.19 502.36,-36.08 509.36,-36.29"/>
</a>
</g>
</g>
<!-- Node10 -->
<g id="Node000010" class="node">
<title>Node10</title>
<g id="a_Node000010"><a xlink:title=" ">
<polygon fill="#e0e0e0" stroke="#999999" points="586.5,-24.88 541.25,-24.88 541.25,-5.63 586.5,-5.63 586.5,-24.88"/>
<text text-anchor="middle" x="563.88" y="-11.38" font-family="Helvetica,sans-Serif" font-size="10.00">variant</text>
</a>
</g>
</g>
<!-- Node5&#45;&gt;Node10 -->
<g id="edge9_Node000005_Node000010" class="edge">
<title>Node5&#45;&gt;Node10</title>
<g id="a_edge9_Node000005_Node000010"><a xlink:title=" ">
<path fill="none" stroke="#63b8ff" d="M418.48,-136.69C447.27,-129.18 481.77,-116.81 507.88,-97 529.59,-80.53 546.01,-53.17 555.29,-34.93"/>
<polygon fill="#63b8ff" stroke="#63b8ff" points="558.81,-36.68 560.02,-26.16 552.51,-33.63 558.81,-36.68"/>
</a>
</g>
</g>
<!-- Node11 -->
<g id="Node000011" class="node">
<title>Node11</title>
<g id="a_Node000011"><a xlink:title=" ">
<polygon fill="#e0e0e0" stroke="#999999" points="643.5,-24.88 604.25,-24.88 604.25,-5.63 643.5,-5.63 643.5,-24.88"/>
<text text-anchor="middle" x="623.88" y="-11.38" font-family="Helvetica,sans-Serif" font-size="10.00">utility</text>
</a>
</g>
</g>
<!-- Node5&#45;&gt;Node11 -->
<g id="edge10_Node000005_Node000011" class="edge">
<title>Node5&#45;&gt;Node11</title>
<g id="a_edge10_Node000005_Node000011"><a xlink:title=" ">
<path fill="none" stroke="#63b8ff" d="M418.41,-137.89C453.66,-130.36 499.35,-117.55 535.88,-97 565.56,-80.3 593.38,-51.79 609.5,-33.5"/>
<polygon fill="#63b8ff" stroke="#63b8ff" points="612.77,-36.07 616.63,-26.21 607.46,-31.51 612.77,-36.07"/>
</a>
</g>
</g>
<!-- Node12 -->
<g id="Node000012" class="node">
<title>Node12</title>
<g id="a_Node000012"><a xlink:title=" ">
<polygon fill="#e0e0e0" stroke="#999999" points="719.88,-24.88 661.88,-24.88 661.88,-5.63 719.88,-5.63 719.88,-24.88"/>
<text text-anchor="middle" x="690.88" y="-11.38" font-family="Helvetica,sans-Serif" font-size="10.00">functional</text>
</a>
</g>
</g>
<!-- Node5&#45;&gt;Node12 -->
<g id="edge12_Node000005_Node000012" class="edge">
<title>Node5&#45;&gt;Node12</title>
<g id="a_edge12_Node000005_Node000012"><a xlink:title=" ">
<path fill="none" stroke="#63b8ff" d="M418.62,-139.17C461.29,-131.71 520.94,-118.46 569.88,-97 608.9,-79.88 649.06,-50.24 671.89,-32.03"/>
<polygon fill="#63b8ff" stroke="#63b8ff" points="673.73,-34.23 679.3,-25.22 669.32,-28.8 673.73,-34.23"/>
</a>
</g>
</g>
<!-- Node13 -->
<g id="Node000013" class="node">
<title>Node13</title>
<g id="a_Node000013"><a xlink:href="lserializing___serializable_data_8h.html" target="_top" xlink:title="This file defines the SerializableData class.">
<polygon fill="white" stroke="#666666" points="460.12,-97 349.62,-97 349.62,-66.5 460.12,-66.5 460.12,-97"/>
<text text-anchor="start" x="357.62" y="-83.5" font-family="Helvetica,sans-Serif" font-size="10.00">lserializing/lserializing</text>
<text text-anchor="middle" x="404.88" y="-72.25" font-family="Helvetica,sans-Serif" font-size="10.00">_SerializableData.h</text>
</a>
</g>
</g>
<!-- Node5&#45;&gt;Node13 -->
<g id="edge14_Node000005_Node000013" class="edge">
<title>Node5&#45;&gt;Node13</title>
<g id="a_edge14_Node000005_Node000013"><a xlink:title=" ">
<path fill="none" stroke="#63b8ff" d="M372.41,-132.61C377.45,-124.86 383.78,-115.15 389.5,-106.36"/>
<polygon fill="#63b8ff" stroke="#63b8ff" points="392.86,-108.62 395.38,-98.33 386.99,-104.8 392.86,-108.62"/>
</a>
</g>
</g>
<!-- Node13&#45;&gt;Node2 -->
<g id="edge21_Node000013_Node000002" class="edge">
<title>Node13&#45;&gt;Node2</title>
<g id="a_edge21_Node000013_Node000002"><a xlink:title=" ">
<path fill="none" stroke="#63b8ff" d="M349.27,-75.7C282.45,-68.87 167.28,-54.68 70.88,-30.5 68.7,-29.95 66.47,-29.34 64.24,-28.67"/>
<polygon fill="#63b8ff" stroke="#63b8ff" points="65.5,-25.08 54.91,-25.31 63.33,-31.73 65.5,-25.08"/>
</a>
</g>
</g>
<!-- Node13&#45;&gt;Node3 -->
<g id="edge23_Node000013_Node000003" class="edge">
<title>Node13&#45;&gt;Node3</title>
<g id="a_edge23_Node000013_Node000003"><a xlink:title=" ">
<path fill="none" stroke="#63b8ff" d="M349.14,-72.45C296.68,-64.03 216.2,-49.53 147.88,-30.5 145.98,-29.97 144.04,-29.39 142.1,-28.78"/>
<polygon fill="#63b8ff" stroke="#63b8ff" points="143.37,-25.18 132.78,-25.3 141.13,-31.81 143.37,-25.18"/>
</a>
</g>
</g>
<!-- Node13&#45;&gt;Node4 -->
<g id="edge24_Node000013_Node000004" class="edge">
<title>Node13&#45;&gt;Node4</title>
<g id="a_edge24_Node000013_Node000004"><a xlink:title=" ">
<path fill="none" stroke="#63b8ff" d="M361.08,-66.11C332.93,-56.7 296.14,-44.41 266.13,-34.38"/>
<polygon fill="#63b8ff" stroke="#63b8ff" points="267.42,-30.79 256.83,-30.94 265.2,-37.43 267.42,-30.79"/>
</a>
</g>
</g>
<!-- Node13&#45;&gt;Node6 -->
<g id="edge15_Node000013_Node000006" class="edge">
<title>Node13&#45;&gt;Node6</title>
<g id="a_edge15_Node000013_Node000006"><a xlink:title=" ">
<path fill="none" stroke="#63b8ff" d="M385.13,-66.11C371.15,-55.75 352.44,-41.88 338.31,-31.4"/>
<polygon fill="#63b8ff" stroke="#63b8ff" points="340.89,-28.22 330.78,-25.07 336.72,-33.84 340.89,-28.22"/>
</a>
</g>
</g>
<!-- Node13&#45;&gt;Node7 -->
<g id="edge16_Node000013_Node000007" class="edge">
<title>Node13&#45;&gt;Node7</title>
<g id="a_edge16_Node000013_Node000007"><a xlink:title=" ">
<path fill="none" stroke="#63b8ff" d="M401.24,-66.11C398.99,-57.03 396.07,-45.26 393.63,-35.43"/>
<polygon fill="#63b8ff" stroke="#63b8ff" points="396.87,-34.94 391.06,-26.07 390.07,-36.62 396.87,-34.94"/>
</a>
</g>
</g>
<!-- Node13&#45;&gt;Node8 -->
<g id="edge17_Node000013_Node000008" class="edge">
<title>Node13&#45;&gt;Node8</title>
<g id="a_edge17_Node000013_Node000008"><a xlink:title=" ">
<path fill="none" stroke="#63b8ff" d="M414.86,-66.11C421.39,-56.54 429.96,-43.97 436.87,-33.85"/>
<polygon fill="#63b8ff" stroke="#63b8ff" points="440.11,-36.31 442.86,-26.07 434.33,-32.36 440.11,-36.31"/>
</a>
</g>
</g>
<!-- Node13&#45;&gt;Node9 -->
<g id="edge18_Node000013_Node000009" class="edge">
<title>Node13&#45;&gt;Node9</title>
<g id="a_edge18_Node000013_Node000009"><a xlink:title=" ">
<path fill="none" stroke="#63b8ff" d="M427.79,-66.11C444.24,-55.61 466.31,-41.52 482.79,-30.99"/>
<polygon fill="#63b8ff" stroke="#63b8ff" points="484.22,-33.59 490.77,-25.26 480.45,-27.69 484.22,-33.59"/>
</a>
</g>
</g>
<!-- Node13&#45;&gt;Node10 -->
<g id="edge19_Node000013_Node000010" class="edge">
<title>Node13&#45;&gt;Node10</title>
<g id="a_edge19_Node000013_Node000010"><a xlink:title=" ">
<path fill="none" stroke="#63b8ff" d="M443.11,-66.1C468.41,-56.3 502.26,-42.95 531.88,-30.5 532.61,-30.19 533.36,-29.88 534.11,-29.56"/>
<polygon fill="#63b8ff" stroke="#63b8ff" points="535.18,-32.47 542.96,-25.27 532.39,-26.05 535.18,-32.47"/>
</a>
</g>
</g>
<!-- Node13&#45;&gt;Node11 -->
<g id="edge20_Node000013_Node000011" class="edge">
<title>Node13&#45;&gt;Node11</title>
<g id="a_edge20_Node000013_Node000011"><a xlink:title=" ">
<path fill="none" stroke="#63b8ff" d="M460.6,-69.4C499.23,-60.73 551.5,-47.41 595.88,-30.5 596.48,-30.27 597.09,-30.03 597.7,-29.78"/>
<polygon fill="#63b8ff" stroke="#63b8ff" points="598.91,-32.62 606.56,-25.29 596.01,-26.25 598.91,-32.62"/>
</a>
</g>
</g>
<!-- Node13&#45;&gt;Node12 -->
<g id="edge22_Node000013_Node000012" class="edge">
<title>Node13&#45;&gt;Node12</title>
<g id="a_edge22_Node000013_Node000012"><a xlink:title=" ">
<path fill="none" stroke="#63b8ff" d="M460.15,-72.14C510.81,-63.64 587.63,-49.21 652.88,-30.5 654.64,-29.99 656.45,-29.44 658.26,-28.86"/>
<polygon fill="#63b8ff" stroke="#63b8ff" points="659.26,-31.87 667.57,-25.29 656.97,-25.25 659.26,-31.87"/>
</a>
</g>
</g>
</g>
</svg>
