<?xml version="1.0" encoding="UTF-8" standalone="no"?>
<!DOCTYPE svg PUBLIC "-//W3C//DTD SVG 1.1//EN"
 "http://www.w3.org/Graphics/SVG/1.1/DTD/svg11.dtd">
<!-- Generated by graphviz version 8.0.5 (20230430.1635)
 -->
<!-- Title: lserializing_SerializingFormat.h Pages: 1 -->
<svg width="842pt" height="305pt"
 viewBox="0.00 0.00 842.25 304.50" xmlns="http://www.w3.org/2000/svg" xmlns:xlink="http://www.w3.org/1999/xlink">
<g id="graph0" class="graph" transform="scale(1 1) rotate(0) translate(4 300.5)">
<title>lserializing_SerializingFormat.h</title>
<!-- Node1 -->
<g id="Node000001" class="node">
<title>Node1</title>
<g id="a_Node000001"><a xlink:title="This file defines the serializing::Format class.">
<polygon fill="#999999" stroke="#666666" points="308,-296.5 196,-296.5 196,-266 308,-266 308,-296.5"/>
<text text-anchor="start" x="204" y="-283" font-family="Helvetica,sans-Serif" font-size="10.00">lserializing_Serializing</text>
<text text-anchor="middle" x="252" y="-271.75" font-family="Helvetica,sans-Serif" font-size="10.00">Format.h</text>
</a>
</g>
</g>
<!-- Node2 -->
<g id="Node000002" class="node">
<title>Node2</title>
<g id="a_Node000002"><a xlink:title=" ">
<polygon fill="#e0e0e0" stroke="#999999" points="40,-24.88 0,-24.88 0,-5.63 40,-5.63 40,-24.88"/>
<text text-anchor="middle" x="20" y="-11.38" font-family="Helvetica,sans-Serif" font-size="10.00">string</text>
</a>
</g>
</g>
<!-- Node1&#45;&gt;Node2 -->
<g id="edge1_Node000001_Node000002" class="edge">
<title>Node1&#45;&gt;Node2</title>
<g id="a_edge1_Node000001_Node000002"><a xlink:title=" ">
<path fill="none" stroke="#63b8ff" d="M196.27,-265.59C174.6,-257.76 150.77,-246.29 133,-230 71.89,-173.98 37.81,-77.17 25.43,-35.86"/>
<polygon fill="#63b8ff" stroke="#63b8ff" points="28.53,-34.97 22.39,-26.34 21.81,-36.91 28.53,-34.97"/>
</a>
</g>
</g>
<!-- Node3 -->
<g id="Node000003" class="node">
<title>Node3</title>
<g id="a_Node000003"><a xlink:title=" ">
<polygon fill="#e0e0e0" stroke="#999999" points="144.75,-24.88 79.25,-24.88 79.25,-5.63 144.75,-5.63 144.75,-24.88"/>
<text text-anchor="middle" x="112" y="-11.38" font-family="Helvetica,sans-Serif" font-size="10.00">string_view</text>
</a>
</g>
</g>
<!-- Node1&#45;&gt;Node3 -->
<g id="edge2_Node000001_Node000003" class="edge">
<title>Node1&#45;&gt;Node3</title>
<g id="a_edge2_Node000001_Node000003"><a xlink:title=" ">
<path fill="none" stroke="#63b8ff" d="M202.52,-265.52C184.37,-257.74 165.29,-246.32 153,-230 108.31,-170.63 108.08,-76.34 110.38,-35.81"/>
<polygon fill="#63b8ff" stroke="#63b8ff" points="113.93,-36.28 111.13,-26.06 106.95,-35.79 113.93,-36.28"/>
</a>
</g>
</g>
<!-- Node4 -->
<g id="Node000004" class="node">
<title>Node4</title>
<g id="a_Node000004"><a xlink:title=" ">
<polygon fill="#e0e0e0" stroke="#999999" points="211.5,-24.88 168.5,-24.88 168.5,-5.63 211.5,-5.63 211.5,-24.88"/>
<text text-anchor="middle" x="190" y="-11.38" font-family="Helvetica,sans-Serif" font-size="10.00">vector</text>
</a>
</g>
</g>
<!-- Node1&#45;&gt;Node4 -->
<g id="edge3_Node000001_Node000004" class="edge">
<title>Node1&#45;&gt;Node4</title>
<g id="a_edge3_Node000001_Node000004"><a xlink:title=" ">
<path fill="none" stroke="#63b8ff" d="M209.76,-265.51C193.72,-257.61 177.14,-246.11 168,-230 131.82,-166.2 164.18,-74.33 181.15,-35.13"/>
<polygon fill="#63b8ff" stroke="#63b8ff" points="184.74,-36.7 185.65,-26.14 178.35,-33.83 184.74,-36.7"/>
</a>
</g>
</g>
<!-- Node5 -->
<g id="Node000005" class="node">
<title>Node5</title>
<g id="a_Node000005"><a xlink:title=" ">
<polygon fill="#e0e0e0" stroke="#999999" points="228.62,-224.38 177.38,-224.38 177.38,-205.12 228.62,-205.12 228.62,-224.38"/>
<text text-anchor="middle" x="203" y="-210.88" font-family="Helvetica,sans-Serif" font-size="10.00">memory</text>
</a>
</g>
</g>
<!-- Node1&#45;&gt;Node5 -->
<g id="edge4_Node000001_Node000005" class="edge">
<title>Node1&#45;&gt;Node5</title>
<g id="a_edge4_Node000001_Node000005"><a xlink:title=" ">
<path fill="none" stroke="#63b8ff" d="M240.88,-265.61C233.53,-255.94 223.86,-243.21 216.13,-233.04"/>
<polygon fill="#63b8ff" stroke="#63b8ff" points="218.54,-231.42 209.7,-225.57 212.96,-235.65 218.54,-231.42"/>
</a>
</g>
</g>
<!-- Node6 -->
<g id="Node000006" class="node">
<title>Node6</title>
<g id="a_Node000006"><a xlink:title=" ">
<polygon fill="#e0e0e0" stroke="#999999" points="746.25,-30.5 635.75,-30.5 635.75,0 746.25,0 746.25,-30.5"/>
<text text-anchor="start" x="643.75" y="-17" font-family="Helvetica,sans-Serif" font-size="10.00">lserializing/lserializing</text>
<text text-anchor="middle" x="691" y="-5.75" font-family="Helvetica,sans-Serif" font-size="10.00">_Export.h</text>
</a>
</g>
</g>
<!-- Node1&#45;&gt;Node6 -->
<g id="edge5_Node000001_Node000006" class="edge">
<title>Node1&#45;&gt;Node6</title>
<g id="a_edge5_Node000001_Node000006"><a xlink:title=" ">
<path fill="none" stroke="#63b8ff" d="M297.83,-265.53C324.58,-256.39 358.74,-243.78 388,-230 494.49,-179.86 525.3,-170.79 617,-97 638.32,-79.84 659.06,-56.46 673.13,-39.27"/>
<polygon fill="#63b8ff" stroke="#63b8ff" points="676.31,-41.9 679.84,-31.91 670.85,-37.51 676.31,-41.9"/>
</a>
</g>
</g>
<!-- Node7 -->
<g id="Node000007" class="node">
<title>Node7</title>
<g id="a_Node000007"><a xlink:href="lserializing___node_8h.html" target="_top" xlink:title="This file defines the Node class.">
<polygon fill="white" stroke="#666666" points="440.25,-163.5 329.75,-163.5 329.75,-133 440.25,-133 440.25,-163.5"/>
<text text-anchor="start" x="337.75" y="-150" font-family="Helvetica,sans-Serif" font-size="10.00">lserializing/lserializing</text>
<text text-anchor="middle" x="385" y="-138.75" font-family="Helvetica,sans-Serif" font-size="10.00">_Node.h</text>
</a>
</g>
</g>
<!-- Node1&#45;&gt;Node7 -->
<g id="edge6_Node000001_Node000007" class="edge">
<title>Node1&#45;&gt;Node7</title>
<g id="a_edge6_Node000001_Node000007"><a xlink:title=" ">
<path fill="none" stroke="#63b8ff" d="M308.46,-266.87C329.28,-259.28 351.35,-247.63 366,-230 378.91,-214.46 383.38,-191.71 384.78,-174.31"/>
<polygon fill="#63b8ff" stroke="#63b8ff" points="388.3,-174.95 385.31,-164.78 381.31,-174.59 388.3,-174.95"/>
</a>
</g>
</g>
<!-- Node15 -->
<g id="Node000015" class="node">
<title>Node15</title>
<g id="a_Node000015"><a xlink:href="lserializing___printer_8h.html" target="_top" xlink:title="This file defines the serializing::Printer class.">
<polygon fill="white" stroke="#666666" points="357.25,-230 246.75,-230 246.75,-199.5 357.25,-199.5 357.25,-230"/>
<text text-anchor="start" x="254.75" y="-216.5" font-family="Helvetica,sans-Serif" font-size="10.00">lserializing/lserializing</text>
<text text-anchor="middle" x="302" y="-205.25" font-family="Helvetica,sans-Serif" font-size="10.00">_Printer.h</text>
</a>
</g>
</g>
<!-- Node1&#45;&gt;Node15 -->
<g id="edge28_Node000001_Node000015" class="edge">
<title>Node1&#45;&gt;Node15</title>
<g id="a_edge28_Node000001_Node000015"><a xlink:title=" ">
<path fill="none" stroke="#63b8ff" d="M263.35,-265.61C269.48,-257.7 277.2,-247.74 284.13,-238.8"/>
<polygon fill="#63b8ff" stroke="#63b8ff" points="287.34,-241.38 290.7,-231.33 281.81,-237.09 287.34,-241.38"/>
</a>
</g>
</g>
<!-- Node16 -->
<g id="Node000016" class="node">
<title>Node16</title>
<g id="a_Node000016"><a xlink:href="lserializing___schema_8h.html" target="_top" xlink:title="This file defines the serializing::Schema class.">
<polygon fill="white" stroke="#666666" points="834.25,-163.5 723.75,-163.5 723.75,-133 834.25,-133 834.25,-163.5"/>
<text text-anchor="start" x="731.75" y="-150" font-family="Helvetica,sans-Serif" font-size="10.00">lserializing/lserializing</text>
<text text-anchor="middle" x="779" y="-138.75" font-family="Helvetica,sans-Serif" font-size="10.00">_Schema.h</text>
</a>
</g>
</g>
<!-- Node1&#45;&gt;Node16 -->
<g id="edge33_Node000001_Node000016" class="edge">
<title>Node1&#45;&gt;Node16</title>
<g id="a_edge33_Node000001_Node000016"><a xlink:title=" ">
<path fill="none" stroke="#63b8ff" d="M308.33,-279.2C414.93,-276.38 641.59,-266.18 710,-230 734.29,-217.15 753.68,-191.9 765.65,-173.04"/>
<polygon fill="#63b8ff" stroke="#63b8ff" points="769.02,-175.22 771.22,-164.86 763.04,-171.59 769.02,-175.22"/>
</a>
</g>
</g>
<!-- Node7&#45;&gt;Node2 -->
<g id="edge8_Node000007_Node000002" class="edge">
<title>Node7&#45;&gt;Node2</title>
<g id="a_edge8_Node000007_Node000002"><a xlink:title=" ">
<path fill="none" stroke="#63b8ff" d="M329.34,-136.15C289.39,-127.43 234.6,-113.95 188,-97 135.59,-77.93 77.6,-47.94 45.3,-30.37"/>
<polygon fill="#63b8ff" stroke="#63b8ff" points="47.21,-26.88 36.76,-25.14 43.84,-33.02 47.21,-26.88"/>
</a>
</g>
</g>
<!-- Node7&#45;&gt;Node3 -->
<g id="edge7_Node000007_Node000003" class="edge">
<title>Node7&#45;&gt;Node3</title>
<g id="a_edge7_Node000007_Node000003"><a xlink:title=" ">
<path fill="none" stroke="#63b8ff" d="M336.03,-132.56C308.44,-123.61 273.66,-111.17 244,-97 203.16,-77.49 158.9,-48.69 133.42,-31.27"/>
<polygon fill="#63b8ff" stroke="#63b8ff" points="135.83,-27.99 125.61,-25.2 131.86,-33.76 135.83,-27.99"/>
</a>
</g>
</g>
<!-- Node7&#45;&gt;Node4 -->
<g id="edge9_Node000007_Node000004" class="edge">
<title>Node7&#45;&gt;Node4</title>
<g id="a_edge9_Node000007_Node000004"><a xlink:title=" ">
<path fill="none" stroke="#63b8ff" d="M351.39,-132.55C331.71,-123.37 306.74,-110.72 286,-97 256.37,-77.39 225.51,-49.98 207.03,-32.67"/>
<polygon fill="#63b8ff" stroke="#63b8ff" points="209.9,-30.62 200.23,-26.28 205.08,-35.7 209.9,-30.62"/>
</a>
</g>
</g>
<!-- Node7&#45;&gt;Node6 -->
<g id="edge27_Node000007_Node000006" class="edge">
<title>Node7&#45;&gt;Node6</title>
<g id="a_edge27_Node000007_Node000006"><a xlink:title=" ">
<path fill="none" stroke="#63b8ff" d="M436.44,-132.54C466.25,-123.45 504.25,-110.89 537,-97 579.38,-79.03 625.92,-53.81 656.62,-36.36"/>
<polygon fill="#63b8ff" stroke="#63b8ff" points="658.07,-38.99 665,-30.99 654.59,-32.92 658.07,-38.99"/>
</a>
</g>
</g>
<!-- Node8 -->
<g id="Node000008" class="node">
<title>Node8</title>
<g id="a_Node000008"><a xlink:title=" ">
<polygon fill="#e0e0e0" stroke="#999999" points="417.38,-24.88 382.62,-24.88 382.62,-5.63 417.38,-5.63 417.38,-24.88"/>
<text text-anchor="middle" x="400" y="-11.38" font-family="Helvetica,sans-Serif" font-size="10.00">map</text>
</a>
</g>
</g>
<!-- Node7&#45;&gt;Node8 -->
<g id="edge10_Node000007_Node000008" class="edge">
<title>Node7&#45;&gt;Node8</title>
<g id="a_edge10_Node000007_Node000008"><a xlink:title=" ">
<path fill="none" stroke="#63b8ff" d="M413.72,-132.68C427.06,-124.24 441.59,-112.25 449,-97 454.93,-84.81 454.11,-79.06 449,-66.5 443.4,-52.74 432.03,-40.7 421.65,-31.85"/>
<polygon fill="#63b8ff" stroke="#63b8ff" points="424.31,-28.7 414.31,-25.2 419.95,-34.17 424.31,-28.7"/>
</a>
</g>
</g>
<!-- Node9 -->
<g id="Node000009" class="node">
<title>Node9</title>
<g id="a_Node000009"><a xlink:title=" ">
<polygon fill="#e0e0e0" stroke="#999999" points="480.62,-24.88 435.38,-24.88 435.38,-5.63 480.62,-5.63 480.62,-24.88"/>
<text text-anchor="middle" x="458" y="-11.38" font-family="Helvetica,sans-Serif" font-size="10.00">variant</text>
</a>
</g>
</g>
<!-- Node7&#45;&gt;Node9 -->
<g id="edge11_Node000007_Node000009" class="edge">
<title>Node7&#45;&gt;Node9</title>
<g id="a_edge11_Node000007_Node000009"><a xlink:title=" ">
<path fill="none" stroke="#63b8ff" d="M424.03,-132.7C439.69,-124.7 456.11,-113.08 465,-97 475.61,-77.81 470.71,-52.05 465.25,-34.84"/>
<polygon fill="#63b8ff" stroke="#63b8ff" points="468.37,-34.18 461.74,-25.92 461.77,-36.51 468.37,-34.18"/>
</a>
</g>
</g>
<!-- Node10 -->
<g id="Node000010" class="node">
<title>Node10</title>
<g id="a_Node000010"><a xlink:title=" ">
<polygon fill="#e0e0e0" stroke="#999999" points="537.62,-24.88 498.38,-24.88 498.38,-5.63 537.62,-5.63 537.62,-24.88"/>
<text text-anchor="middle" x="518" y="-11.38" font-family="Helvetica,sans-Serif" font-size="10.00">utility</text>
</a>
</g>
</g>
<!-- Node7&#45;&gt;Node10 -->
<g id="edge12_Node000007_Node000010" class="edge">
<title>Node7&#45;&gt;Node10</title>
<g id="a_edge12_Node000007_Node000010"><a xlink:title=" ">
<path fill="none" stroke="#63b8ff" d="M427.73,-132.54C446.31,-124.41 467.17,-112.73 482,-97 498.34,-79.68 508.09,-53.7 513.24,-35.92"/>
<polygon fill="#63b8ff" stroke="#63b8ff" points="516.87,-36.92 516.05,-26.35 510.1,-35.12 516.87,-36.92"/>
</a>
</g>
</g>
<!-- Node11 -->
<g id="Node000011" class="node">
<title>Node11</title>
<g id="a_Node000011"><a xlink:title=" ">
<polygon fill="#e0e0e0" stroke="#999999" points="617.88,-24.88 556.12,-24.88 556.12,-5.63 617.88,-5.63 617.88,-24.88"/>
<text text-anchor="middle" x="587" y="-11.38" font-family="Helvetica,sans-Serif" font-size="10.00">type_traits</text>
</a>
</g>
</g>
<!-- Node7&#45;&gt;Node11 -->
<g id="edge13_Node000007_Node000011" class="edge">
<title>Node7&#45;&gt;Node11</title>
<g id="a_edge13_Node000007_Node000011"><a xlink:title=" ">
<path fill="none" stroke="#63b8ff" d="M431.22,-132.59C454.43,-124.09 482.34,-112.08 505,-97 532.05,-79 557.83,-51.27 573.03,-33.45"/>
<polygon fill="#63b8ff" stroke="#63b8ff" points="576.25,-36.06 579.97,-26.14 570.88,-31.57 576.25,-36.06"/>
</a>
</g>
</g>
<!-- Node12 -->
<g id="Node000012" class="node">
<title>Node12</title>
<g id="a_Node000012"><a xlink:title=" ">
<polygon fill="#e0e0e0" stroke="#999999" points="288,-24.88 230,-24.88 230,-5.63 288,-5.63 288,-24.88"/>
<text text-anchor="middle" x="259" y="-11.38" font-family="Helvetica,sans-Serif" font-size="10.00">functional</text>
</a>
</g>
</g>
<!-- Node7&#45;&gt;Node12 -->
<g id="edge14_Node000007_Node000012" class="edge">
<title>Node7&#45;&gt;Node12</title>
<g id="a_edge14_Node000007_Node000012"><a xlink:title=" ">
<path fill="none" stroke="#63b8ff" d="M359.24,-132.57C344.66,-123.5 326.66,-110.93 313,-97 294.52,-78.15 278.45,-52.17 268.76,-34.82"/>
<polygon fill="#63b8ff" stroke="#63b8ff" points="271.42,-33.39 263.58,-26.27 265.27,-36.73 271.42,-33.39"/>
</a>
</g>
</g>
<!-- Node13 -->
<g id="Node000013" class="node">
<title>Node13</title>
<g id="a_Node000013"><a xlink:title=" ">
<polygon fill="#e0e0e0" stroke="#999999" points="364.38,-24.88 305.62,-24.88 305.62,-5.63 364.38,-5.63 364.38,-24.88"/>
<text text-anchor="middle" x="335" y="-11.38" font-family="Helvetica,sans-Serif" font-size="10.00">stdexcept</text>
</a>
</g>
</g>
<!-- Node7&#45;&gt;Node13 -->
<g id="edge15_Node000007_Node000013" class="edge">
<title>Node7&#45;&gt;Node13</title>
<g id="a_edge15_Node000007_Node000013"><a xlink:title=" ">
<path fill="none" stroke="#63b8ff" d="M356.28,-132.68C342.94,-124.24 328.41,-112.25 321,-97 311.4,-77.27 318.45,-52 325.57,-35.04"/>
<polygon fill="#63b8ff" stroke="#63b8ff" points="329.08,-36.77 330.09,-26.22 322.73,-33.84 329.08,-36.77"/>
</a>
</g>
</g>
<!-- Node14 -->
<g id="Node000014" class="node">
<title>Node14</title>
<g id="a_Node000014"><a xlink:href="lserializing___serializable_data_8h.html" target="_top" xlink:title="This file defines the SerializableData class.">
<polygon fill="white" stroke="#666666" points="440.25,-97 329.75,-97 329.75,-66.5 440.25,-66.5 440.25,-97"/>
<text text-anchor="start" x="337.75" y="-83.5" font-family="Helvetica,sans-Serif" font-size="10.00">lserializing/lserializing</text>
<text text-anchor="middle" x="385" y="-72.25" font-family="Helvetica,sans-Serif" font-size="10.00">_SerializableData.h</text>
</a>
</g>
</g>
<!-- Node7&#45;&gt;Node14 -->
<g id="edge16_Node000007_Node000014" class="edge">
<title>Node7&#45;&gt;Node14</title>
<g id="a_edge16_Node000007_Node000014"><a xlink:title=" ">
<path fill="none" stroke="#63b8ff" d="M385,-132.61C385,-125.36 385,-116.38 385,-108.06"/>
<polygon fill="#63b8ff" stroke="#63b8ff" points="388.5,-108.33 385,-98.33 381.5,-108.33 388.5,-108.33"/>
</a>
</g>
</g>
<!-- Node14&#45;&gt;Node2 -->
<g id="edge18_Node000014_Node000002" class="edge">
<title>Node14&#45;&gt;Node2</title>
<g id="a_edge18_Node000014_Node000002"><a xlink:title=" ">
<path fill="none" stroke="#63b8ff" d="M329.43,-73.93C266.19,-65.69 160.03,-50.43 70,-30.5 63.68,-29.1 56.97,-27.37 50.59,-25.59"/>
<polygon fill="#63b8ff" stroke="#63b8ff" points="51.87,-22.03 41.29,-22.63 49.94,-28.76 51.87,-22.03"/>
</a>
</g>
</g>
<!-- Node14&#45;&gt;Node3 -->
<g id="edge17_Node000014_Node000003" class="edge">
<title>Node14&#45;&gt;Node3</title>
<g id="a_edge17_Node000014_Node000003"><a xlink:title=" ">
<path fill="none" stroke="#63b8ff" d="M329.46,-69.62C283.53,-60.13 216.73,-45.65 159,-30.5 156.4,-29.82 153.73,-29.09 151.05,-28.33"/>
<polygon fill="#63b8ff" stroke="#63b8ff" points="152.31,-24.77 141.74,-25.34 150.36,-31.49 152.31,-24.77"/>
</a>
</g>
</g>
<!-- Node14&#45;&gt;Node4 -->
<g id="edge19_Node000014_Node000004" class="edge">
<title>Node14&#45;&gt;Node4</title>
<g id="a_edge19_Node000014_Node000004"><a xlink:title=" ">
<path fill="none" stroke="#63b8ff" d="M330.46,-66.02C298.26,-56.83 256.9,-44.18 221,-30.5 220.1,-30.16 219.2,-29.8 218.29,-29.44"/>
<polygon fill="#63b8ff" stroke="#63b8ff" points="220.09,-25.97 209.52,-25.25 217.33,-32.41 220.09,-25.97"/>
</a>
</g>
</g>
<!-- Node14&#45;&gt;Node6 -->
<g id="edge26_Node000014_Node000006" class="edge">
<title>Node14&#45;&gt;Node6</title>
<g id="a_edge26_Node000014_Node000006"><a xlink:title=" ">
<path fill="none" stroke="#63b8ff" d="M440.31,-69.5C487,-59.95 555.89,-45.74 624.89,-30.94"/>
<polygon fill="#63b8ff" stroke="#63b8ff" points="625.47,-34.18 634.51,-28.66 624,-27.34 625.47,-34.18"/>
</a>
</g>
</g>
<!-- Node14&#45;&gt;Node8 -->
<g id="edge20_Node000014_Node000008" class="edge">
<title>Node14&#45;&gt;Node8</title>
<g id="a_edge20_Node000014_Node000008"><a xlink:title=" ">
<path fill="none" stroke="#63b8ff" d="M388.4,-66.11C390.49,-57.13 393.19,-45.51 395.46,-35.76"/>
<polygon fill="#63b8ff" stroke="#63b8ff" points="399.09,-36.61 397.95,-26.07 392.27,-35.02 399.09,-36.61"/>
</a>
</g>
</g>
<!-- Node14&#45;&gt;Node9 -->
<g id="edge21_Node000014_Node000009" class="edge">
<title>Node14&#45;&gt;Node9</title>
<g id="a_edge21_Node000014_Node000009"><a xlink:title=" ">
<path fill="none" stroke="#63b8ff" d="M401.56,-66.11C412.96,-56.04 428.1,-42.67 439.83,-32.31"/>
<polygon fill="#63b8ff" stroke="#63b8ff" points="441.84,-35.32 447.01,-26.07 437.2,-30.07 441.84,-35.32"/>
</a>
</g>
</g>
<!-- Node14&#45;&gt;Node10 -->
<g id="edge22_Node000014_Node000010" class="edge">
<title>Node14&#45;&gt;Node10</title>
<g id="a_edge22_Node000014_Node000010"><a xlink:title=" ">
<path fill="none" stroke="#63b8ff" d="M415.88,-66.22C436.85,-56.29 465.17,-42.76 490,-30.5 490.21,-30.4 490.42,-30.29 490.63,-30.19"/>
<polygon fill="#63b8ff" stroke="#63b8ff" points="491.89,-32.97 499.26,-25.36 488.75,-26.71 491.89,-32.97"/>
</a>
</g>
</g>
<!-- Node14&#45;&gt;Node11 -->
<g id="edge23_Node000014_Node000011" class="edge">
<title>Node14&#45;&gt;Node11</title>
<g id="a_edge23_Node000014_Node000011"><a xlink:title=" ">
<path fill="none" stroke="#63b8ff" d="M434.08,-66.1C466.3,-56.35 509.28,-43.06 547,-30.5 548.68,-29.94 550.4,-29.36 552.14,-28.77"/>
<polygon fill="#63b8ff" stroke="#63b8ff" points="552.8,-31.9 561.09,-25.3 550.5,-25.28 552.8,-31.9"/>
</a>
</g>
</g>
<!-- Node14&#45;&gt;Node12 -->
<g id="edge24_Node000014_Node000012" class="edge">
<title>Node14&#45;&gt;Node12</title>
<g id="a_edge24_Node000014_Node000012"><a xlink:title=" ">
<path fill="none" stroke="#63b8ff" d="M356.41,-66.11C335.41,-55.37 307.07,-40.86 286.37,-30.26"/>
<polygon fill="#63b8ff" stroke="#63b8ff" points="288.1,-26.7 277.6,-25.26 284.91,-32.93 288.1,-26.7"/>
</a>
</g>
</g>
<!-- Node14&#45;&gt;Node13 -->
<g id="edge25_Node000014_Node000013" class="edge">
<title>Node14&#45;&gt;Node13</title>
<g id="a_edge25_Node000014_Node000013"><a xlink:title=" ">
<path fill="none" stroke="#63b8ff" d="M373.65,-66.11C366.15,-56.44 356.29,-43.71 348.4,-33.54"/>
<polygon fill="#63b8ff" stroke="#63b8ff" points="350.73,-31.83 341.84,-26.07 345.2,-36.12 350.73,-31.83"/>
</a>
</g>
</g>
<!-- Node15&#45;&gt;Node2 -->
<g id="edge30_Node000015_Node000002" class="edge">
<title>Node15&#45;&gt;Node2</title>
<g id="a_edge30_Node000015_Node000002"><a xlink:title=" ">
<path fill="none" stroke="#63b8ff" d="M277.92,-199.08C261.56,-189.1 239.44,-175.55 220,-163.5 172.73,-134.19 158.77,-129.99 114,-97 86.02,-76.38 55.91,-49.63 37.51,-32.69"/>
<polygon fill="#63b8ff" stroke="#63b8ff" points="40.19,-30.47 30.48,-26.24 35.43,-35.6 40.19,-30.47"/>
</a>
</g>
</g>
<!-- Node15&#45;&gt;Node3 -->
<g id="edge29_Node000015_Node000003" class="edge">
<title>Node15&#45;&gt;Node3</title>
<g id="a_edge29_Node000015_Node000003"><a xlink:title=" ">
<path fill="none" stroke="#63b8ff" d="M287.52,-199.09C265.78,-177.05 223.48,-134.01 188,-97 166.9,-74.99 142.81,-49.3 127.52,-32.92"/>
<polygon fill="#63b8ff" stroke="#63b8ff" points="130.76,-31.19 121.38,-26.26 125.64,-35.96 130.76,-31.19"/>
</a>
</g>
</g>
<!-- Node15&#45;&gt;Node6 -->
<g id="edge31_Node000015_Node000006" class="edge">
<title>Node15&#45;&gt;Node6</title>
<g id="a_edge31_Node000015_Node000006"><a xlink:title=" ">
<path fill="none" stroke="#63b8ff" d="M350.29,-199.09C379.28,-189.84 416.68,-177.09 449,-163.5 509.56,-138.04 525,-131.33 581,-97 610.82,-78.72 642.84,-54.66 664.59,-37.57"/>
<polygon fill="#63b8ff" stroke="#63b8ff" points="666.3,-39.89 671.97,-30.94 661.96,-34.41 666.3,-39.89"/>
</a>
</g>
</g>
<!-- Node15&#45;&gt;Node7 -->
<g id="edge32_Node000015_Node000007" class="edge">
<title>Node15&#45;&gt;Node7</title>
<g id="a_edge32_Node000015_Node000007"><a xlink:title=" ">
<path fill="none" stroke="#63b8ff" d="M320.83,-199.11C331.76,-190.62 345.72,-179.77 357.82,-170.37"/>
<polygon fill="#63b8ff" stroke="#63b8ff" points="359.49,-172.73 365.24,-163.83 355.2,-167.2 359.49,-172.73"/>
</a>
</g>
</g>
<!-- Node16&#45;&gt;Node6 -->
<g id="edge34_Node000016_Node000006" class="edge">
<title>Node16&#45;&gt;Node6</title>
<g id="a_edge34_Node000016_Node000006"><a xlink:title=" ">
<path fill="none" stroke="#63b8ff" d="M769.25,-132.73C754.11,-110.21 724.84,-66.63 706.71,-39.63"/>
<polygon fill="#63b8ff" stroke="#63b8ff" points="709.28,-38.18 700.8,-31.83 703.47,-42.09 709.28,-38.18"/>
</a>
</g>
</g>
</g>
</svg>
