<?xml version="1.0" encoding="UTF-8" standalone="no"?>
<!DOCTYPE svg PUBLIC "-//W3C//DTD SVG 1.1//EN"
 "http://www.w3.org/Graphics/SVG/1.1/DTD/svg11.dtd">
<!-- Generated by graphviz version 8.0.5 (20230430.1635)
 -->
<!-- Title: lserializing_Printer.h Pages: 1 -->
<svg width="158pt" height="149pt"
 viewBox="0.00 0.00 157.50 149.00" xmlns="http://www.w3.org/2000/svg" xmlns:xlink="http://www.w3.org/1999/xlink">
<g id="graph0" class="graph" transform="scale(1 1) rotate(0) translate(4 145)">
<title>lserializing_Printer.h</title>
<!-- Node1 -->
<g id="Node000001" class="node">
<title>Node1</title>
<g id="a_Node000001"><a xlink:title="This file defines the serializing::Printer class.">
<polygon fill="#999999" stroke="#666666" points="103,-141 0,-141 0,-121.75 103,-121.75 103,-141"/>
<text text-anchor="middle" x="51.5" y="-127.5" font-family="Helvetica,sans-Serif" font-size="10.00">lserializing_Printer.h</text>
</a>
</g>
</g>
<!-- Node2 -->
<g id="Node000002" class="node">
<title>Node2</title>
<g id="a_Node000002"><a xlink:href="lserializing_8h.html" target="_top" xlink:title="The main header for the limes_serializing library.">
<polygon fill="white" stroke="#666666" points="86.5,-19.25 16.5,-19.25 16.5,0 86.5,0 86.5,-19.25"/>
<text text-anchor="middle" x="51.5" y="-5.75" font-family="Helvetica,sans-Serif" font-size="10.00">lserializing.h</text>
</a>
</g>
</g>
<!-- Node1&#45;&gt;Node2 -->
<g id="edge1_Node000001_Node000002" class="edge">
<title>Node1&#45;&gt;Node2</title>
<g id="a_edge1_Node000001_Node000002"><a xlink:title=" ">
<path fill="none" stroke="#63b8ff" d="M39.61,-112.15C35.2,-104.35 30.73,-94.94 28.5,-85.75 25.3,-72.58 25.3,-68.42 28.5,-55.25 31.7,-42.04 39.54,-28.36 45.18,-19.68"/>
<polygon fill="#63b8ff" stroke="#63b8ff" points="37,-113.59 45.18,-120.32 42.98,-109.95 37,-113.59"/>
</a>
</g>
</g>
<!-- Node3 -->
<g id="Node000003" class="node">
<title>Node3</title>
<g id="a_Node000003"><a xlink:href="lserializing___serializing_format_8h.html" target="_top" xlink:title="This file defines the serializing::Format class.">
<polygon fill="white" stroke="#666666" points="149.5,-85.75 37.5,-85.75 37.5,-55.25 149.5,-55.25 149.5,-85.75"/>
<text text-anchor="start" x="45.5" y="-72.25" font-family="Helvetica,sans-Serif" font-size="10.00">lserializing_Serializing</text>
<text text-anchor="middle" x="93.5" y="-61" font-family="Helvetica,sans-Serif" font-size="10.00">Format.h</text>
</a>
</g>
</g>
<!-- Node1&#45;&gt;Node3 -->
<g id="edge2_Node000001_Node000003" class="edge">
<title>Node1&#45;&gt;Node3</title>
<g id="a_edge2_Node000001_Node000003"><a xlink:title=" ">
<path fill="none" stroke="#63b8ff" d="M64.12,-112.68C70.2,-104.17 77.39,-94.09 83.13,-86.03"/>
<polygon fill="#63b8ff" stroke="#63b8ff" points="60.84,-110.26 57.88,-120.43 66.54,-114.32 60.84,-110.26"/>
</a>
</g>
</g>
<!-- Node3&#45;&gt;Node2 -->
<g id="edge3_Node000003_Node000002" class="edge">
<title>Node3&#45;&gt;Node2</title>
<g id="a_edge3_Node000003_Node000002"><a xlink:title=" ">
<path fill="none" stroke="#63b8ff" d="M76.81,-46.11C70.2,-36.84 63,-26.75 57.97,-19.7"/>
<polygon fill="#63b8ff" stroke="#63b8ff" points="74.46,-47.84 83.12,-53.95 80.16,-43.77 74.46,-47.84"/>
</a>
</g>
</g>
</g>
</svg>
