<?xml version="1.0" encoding="UTF-8" standalone="no"?>
<!DOCTYPE svg PUBLIC "-//W3C//DTD SVG 1.1//EN"
 "http://www.w3.org/Graphics/SVG/1.1/DTD/svg11.dtd">
<!-- Generated by graphviz version 8.0.5 (20230430.1635)
 -->
<!-- Title: lserializing_SerializableData.h Pages: 1 -->
<svg width="348pt" height="271pt"
 viewBox="0.00 0.00 347.62 270.75" xmlns="http://www.w3.org/2000/svg" xmlns:xlink="http://www.w3.org/1999/xlink">

<svg id="main" version="1.1" xmlns="http://www.w3.org/2000/svg" xmlns:xlink="http://www.w3.org/1999/xlink" xml:space="preserve" onload="init(evt)">
<style type="text/css"><![CDATA[
.node, .edge {opacity: 0.7;}
.node.selected, .edge.selected {opacity: 1;}
.edge:hover path { stroke: red; }
.edge:hover polygon { stroke: red; fill: red; }
]]></style>
<script type="application/ecmascript" xlink:href="svg.min.js"/>
<svg id="graph" class="graph">
<g id="graph0" class="graph" transform="scale(1 1) rotate(0) translate(4 266.75)">
<title>lserializing_SerializableData.h</title>
<!-- Node1 -->
<g id="Node000001" class="node">
<title>Node1</title>
<g id="a_Node000001"><a xlink:title="This file defines the SerializableData class.">
<polygon fill="#999999" stroke="#666666" points="117.25,-262.75 0,-262.75 0,-232.25 117.25,-232.25 117.25,-262.75"/>
<text text-anchor="start" x="8" y="-249.25" font-family="Helvetica,sans-Serif" font-size="10.00">lserializing_Serializable</text>
<text text-anchor="middle" x="58.62" y="-238" font-family="Helvetica,sans-Serif" font-size="10.00">Data.h</text>
</a>
</g>
</g>
<!-- Node2 -->
<g id="Node000002" class="node">
<title>Node2</title>
<g id="a_Node000002"><a xlink:href="lserializing_8h.html" target="_top" xlink:title="The main header for the limes_serializing library.">
<polygon fill="white" stroke="#666666" points="153.62,-19.25 83.62,-19.25 83.62,0 153.62,0 153.62,-19.25"/>
<text text-anchor="middle" x="118.62" y="-5.75" font-family="Helvetica,sans-Serif" font-size="10.00">lserializing.h</text>
</a>
</g>
</g>
<!-- Node1&#45;&gt;Node2 -->
<g id="edge1_Node000001_Node000002" class="edge">
<title>Node1&#45;&gt;Node2</title>
<g id="a_edge1_Node000001_Node000002"><a xlink:title=" ">
<path fill="none" stroke="#63b8ff" d="M49.5,-221.69C37.04,-183.36 19.38,-108.58 48.62,-55.25 57.98,-38.19 76.94,-26.71 92.76,-19.68"/>
<polygon fill="#63b8ff" stroke="#63b8ff" points="46.45,-222.59 52.99,-230.92 53.07,-220.33 46.45,-222.59"/>
</a>
</g>
</g>
<!-- Node3 -->
<g id="Node000003" class="node">
<title>Node3</title>
<g id="a_Node000003"><a xlink:href="lserializing___node_8h.html" target="_top" xlink:title="This file defines the Node class.">
<polygon fill="white" stroke="#666666" points="167.88,-196.25 69.38,-196.25 69.38,-177 167.88,-177 167.88,-196.25"/>
<text text-anchor="middle" x="118.62" y="-182.75" font-family="Helvetica,sans-Serif" font-size="10.00">lserializing_Node.h</text>
</a>
</g>
</g>
<!-- Node1&#45;&gt;Node3 -->
<g id="edge2_Node000001_Node000003" class="edge">
<title>Node1&#45;&gt;Node3</title>
<g id="a_edge2_Node000001_Node000003"><a xlink:title=" ">
<path fill="none" stroke="#63b8ff" d="M81.29,-224.26C91.04,-214.69 101.9,-204.04 109.38,-196.7"/>
<polygon fill="#63b8ff" stroke="#63b8ff" points="79.14,-221.44 74.46,-230.95 84.05,-226.44 79.14,-221.44"/>
</a>
</g>
</g>
<!-- Node3&#45;&gt;Node2 -->
<g id="edge3_Node000003_Node000002" class="edge">
<title>Node3&#45;&gt;Node2</title>
<g id="a_edge3_Node000003_Node000002"><a xlink:title=" ">
<path fill="none" stroke="#63b8ff" d="M103.51,-168.16C88.26,-149.3 65.72,-117.65 56.62,-85.75 52.91,-72.71 50.44,-67.31 56.62,-55.25 65.09,-38.73 82.84,-26.93 97.19,-19.63"/>
<polygon fill="#63b8ff" stroke="#63b8ff" points="101.42,-170.13 110.51,-175.57 106.79,-165.65 101.42,-170.13"/>
</a>
</g>
</g>
<!-- Node4 -->
<g id="Node000004" class="node">
<title>Node4</title>
<g id="a_Node000004"><a xlink:href="lserializing___enums_8h.html" target="_top" xlink:title="Utilities for serializing enum values.">
<polygon fill="white" stroke="#666666" points="171.62,-80.12 65.62,-80.12 65.62,-60.88 171.62,-60.88 171.62,-80.12"/>
<text text-anchor="middle" x="118.62" y="-66.62" font-family="Helvetica,sans-Serif" font-size="10.00">lserializing_Enums.h</text>
</a>
</g>
</g>
<!-- Node3&#45;&gt;Node4 -->
<g id="edge4_Node000003_Node000004" class="edge">
<title>Node3&#45;&gt;Node4</title>
<g id="a_edge4_Node000003_Node000004"><a xlink:title=" ">
<path fill="none" stroke="#63b8ff" d="M118.62,-165.93C118.62,-140.89 118.62,-98.71 118.62,-80.41"/>
<polygon fill="#63b8ff" stroke="#63b8ff" points="115.13,-165.67 118.62,-175.67 122.13,-165.67 115.13,-165.67"/>
</a>
</g>
</g>
<!-- Node5 -->
<g id="Node000005" class="node">
<title>Node5</title>
<g id="a_Node000005"><a xlink:href="lserializing___printer_8h.html" target="_top" xlink:title="This file defines the serializing::Printer class.">
<polygon fill="white" stroke="#666666" points="251.12,-141 148.12,-141 148.12,-121.75 251.12,-121.75 251.12,-141"/>
<text text-anchor="middle" x="199.62" y="-127.5" font-family="Helvetica,sans-Serif" font-size="10.00">lserializing_Printer.h</text>
</a>
</g>
</g>
<!-- Node3&#45;&gt;Node5 -->
<g id="edge6_Node000003_Node000005" class="edge">
<title>Node3&#45;&gt;Node5</title>
<g id="a_edge6_Node000003_Node000005"><a xlink:title=" ">
<path fill="none" stroke="#63b8ff" d="M141.55,-170.55C155.82,-161.17 173.69,-149.42 185.82,-141.45"/>
<polygon fill="#63b8ff" stroke="#63b8ff" points="139.8,-168.17 133.37,-176.59 143.64,-174.02 139.8,-168.17"/>
</a>
</g>
</g>
<!-- Node6 -->
<g id="Node000006" class="node">
<title>Node6</title>
<g id="a_Node000006"><a xlink:href="lserializing___serializing_format_8h.html" target="_top" xlink:title="This file defines the serializing::Format class.">
<polygon fill="white" stroke="#666666" points="339.62,-85.75 227.62,-85.75 227.62,-55.25 339.62,-55.25 339.62,-85.75"/>
<text text-anchor="start" x="235.62" y="-72.25" font-family="Helvetica,sans-Serif" font-size="10.00">lserializing_Serializing</text>
<text text-anchor="middle" x="283.62" y="-61" font-family="Helvetica,sans-Serif" font-size="10.00">Format.h</text>
</a>
</g>
</g>
<!-- Node3&#45;&gt;Node6 -->
<g id="edge10_Node000003_Node000006" class="edge">
<title>Node3&#45;&gt;Node6</title>
<g id="a_edge10_Node000003_Node000006"><a xlink:title=" ">
<path fill="none" stroke="#63b8ff" d="M178.72,-179.41C206.83,-173.62 238.83,-162.47 260.62,-141 275.57,-126.28 280.8,-101.67 282.64,-86.02"/>
<polygon fill="#63b8ff" stroke="#63b8ff" points="178.36,-176.11 169.17,-181.38 179.64,-182.99 178.36,-176.11"/>
</a>
</g>
</g>
<!-- Node4&#45;&gt;Node2 -->
<g id="edge5_Node000004_Node000002" class="edge">
<title>Node4&#45;&gt;Node2</title>
<g id="a_edge5_Node000004_Node000002"><a xlink:title=" ">
<path fill="none" stroke="#63b8ff" d="M118.62,-49.74C118.62,-39.56 118.62,-27.63 118.62,-19.65"/>
<polygon fill="#63b8ff" stroke="#63b8ff" points="115.13,-49.56 118.62,-59.56 122.13,-49.56 115.13,-49.56"/>
</a>
</g>
</g>
<!-- Node5&#45;&gt;Node2 -->
<g id="edge7_Node000005_Node000002" class="edge">
<title>Node5&#45;&gt;Node2</title>
<g id="a_edge7_Node000005_Node000002"><a xlink:title=" ">
<path fill="none" stroke="#63b8ff" d="M198.38,-110.92C196.54,-94.8 191.96,-71.91 180.62,-55.25 169.88,-39.46 151.61,-27.31 137.68,-19.71"/>
<polygon fill="#63b8ff" stroke="#63b8ff" points="194.97,-111.06 199.33,-120.72 201.94,-110.45 194.97,-111.06"/>
</a>
</g>
</g>
<!-- Node5&#45;&gt;Node6 -->
<g id="edge8_Node000005_Node000006" class="edge">
<title>Node5&#45;&gt;Node6</title>
<g id="a_edge8_Node000005_Node000006"><a xlink:title=" ">
<path fill="none" stroke="#63b8ff" d="M221.04,-115.37C233.89,-106.36 250.16,-94.95 262.89,-86.03"/>
<polygon fill="#63b8ff" stroke="#63b8ff" points="219.56,-112.83 213.38,-121.43 223.58,-118.56 219.56,-112.83"/>
</a>
</g>
</g>
<!-- Node6&#45;&gt;Node2 -->
<g id="edge9_Node000006_Node000002" class="edge">
<title>Node6&#45;&gt;Node2</title>
<g id="a_edge9_Node000006_Node000002"><a xlink:title=" ">
<path fill="none" stroke="#63b8ff" d="M232.31,-51.19C202.93,-40.71 167.37,-28.02 143.93,-19.65"/>
<polygon fill="#63b8ff" stroke="#63b8ff" points="230.82,-54.73 241.41,-54.8 233.17,-48.14 230.82,-54.73"/>
</a>
</g>
</g>
</g>
</svg>
</svg>

<style type='text/css'>
<![CDATA[
[data-mouse-over-selected='false'] { opacity: 0.7; }
[data-mouse-over-selected='true']  { opacity: 1.0; }
]]>
</style>
<script type="application/ecmascript"><![CDATA[
document.addEventListener('DOMContentLoaded', (event) => {
  highlightEdges();
  highlightAdjacentNodes();
});
]]></script>
</svg>
