<?xml version="1.0" encoding="UTF-8" standalone="no"?>
<!DOCTYPE svg PUBLIC "-//W3C//DTD SVG 1.1//EN"
 "http://www.w3.org/Graphics/SVG/1.1/DTD/svg11.dtd">
<!-- Generated by graphviz version 8.0.5 (20230430.1635)
 -->
<!-- Title: lserializing_Node.h Pages: 1 -->
<svg width="299pt" height="204pt"
 viewBox="0.00 0.00 298.58 204.25" xmlns="http://www.w3.org/2000/svg" xmlns:xlink="http://www.w3.org/1999/xlink">
<g id="graph0" class="graph" transform="scale(1 1) rotate(0) translate(4 200.25)">
<title>lserializing_Node.h</title>
<!-- Node1 -->
<g id="Node000001" class="node">
<title>Node1</title>
<g id="a_Node000001"><a xlink:title="This file defines the Node class.">
<polygon fill="#999999" stroke="#666666" points="158.83,-196.25 60.33,-196.25 60.33,-177 158.83,-177 158.83,-196.25"/>
<text text-anchor="middle" x="109.58" y="-182.75" font-family="Helvetica,sans-Serif" font-size="10.00">lserializing_Node.h</text>
</a>
</g>
</g>
<!-- Node2 -->
<g id="Node000002" class="node">
<title>Node2</title>
<g id="a_Node000002"><a xlink:href="lserializing_8h.html" target="_top" xlink:title="The main header for the limes_serializing library.">
<polygon fill="white" stroke="#666666" points="144.58,-19.25 74.58,-19.25 74.58,0 144.58,0 144.58,-19.25"/>
<text text-anchor="middle" x="109.58" y="-5.75" font-family="Helvetica,sans-Serif" font-size="10.00">lserializing.h</text>
</a>
</g>
</g>
<!-- Node1&#45;&gt;Node2 -->
<g id="edge1_Node000001_Node000002" class="edge">
<title>Node1&#45;&gt;Node2</title>
<g id="a_edge1_Node000001_Node000002"><a xlink:title=" ">
<path fill="none" stroke="#63b8ff" d="M83.28,-171.13C44.26,-147.69 -21.42,-99.59 7.58,-55.25 22.23,-32.85 50.88,-21.62 74.1,-16.04"/>
<polygon fill="#63b8ff" stroke="#63b8ff" points="81.15,-174.53 91.55,-176.54 84.68,-168.48 81.15,-174.53"/>
</a>
</g>
</g>
<!-- Node3 -->
<g id="Node000003" class="node">
<title>Node3</title>
<g id="a_Node000003"><a xlink:href="lserializing___enums_8h.html" target="_top" xlink:title="Utilities for serializing enum values.">
<polygon fill="white" stroke="#666666" points="122.58,-80.12 16.58,-80.12 16.58,-60.88 122.58,-60.88 122.58,-80.12"/>
<text text-anchor="middle" x="69.58" y="-66.62" font-family="Helvetica,sans-Serif" font-size="10.00">lserializing_Enums.h</text>
</a>
</g>
</g>
<!-- Node1&#45;&gt;Node3 -->
<g id="edge2_Node000001_Node000003" class="edge">
<title>Node1&#45;&gt;Node3</title>
<g id="a_edge2_Node000001_Node000003"><a xlink:title=" ">
<path fill="none" stroke="#63b8ff" d="M100.92,-166.56C97.5,-158.72 93.66,-149.5 90.58,-141 82.84,-119.67 75.6,-93.98 71.99,-80.6"/>
<polygon fill="#63b8ff" stroke="#63b8ff" points="98.09,-167.8 105.35,-175.51 104.48,-164.95 98.09,-167.8"/>
</a>
</g>
</g>
<!-- Node4 -->
<g id="Node000004" class="node">
<title>Node4</title>
<g id="a_Node000004"><a xlink:href="lserializing___printer_8h.html" target="_top" xlink:title="This file defines the serializing::Printer class.">
<polygon fill="white" stroke="#666666" points="202.08,-141 99.08,-141 99.08,-121.75 202.08,-121.75 202.08,-141"/>
<text text-anchor="middle" x="150.58" y="-127.5" font-family="Helvetica,sans-Serif" font-size="10.00">lserializing_Printer.h</text>
</a>
</g>
</g>
<!-- Node1&#45;&gt;Node4 -->
<g id="edge4_Node000001_Node000004" class="edge">
<title>Node1&#45;&gt;Node4</title>
<g id="a_edge4_Node000001_Node000004"><a xlink:title=" ">
<path fill="none" stroke="#63b8ff" d="M122.95,-168.26C129.86,-159.28 138.01,-148.7 143.66,-141.36"/>
<polygon fill="#63b8ff" stroke="#63b8ff" points="119.68,-165.77 116.35,-175.83 125.22,-170.04 119.68,-165.77"/>
</a>
</g>
</g>
<!-- Node5 -->
<g id="Node000005" class="node">
<title>Node5</title>
<g id="a_Node000005"><a xlink:href="lserializing___serializing_format_8h.html" target="_top" xlink:title="This file defines the serializing::Format class.">
<polygon fill="white" stroke="#666666" points="290.58,-85.75 178.58,-85.75 178.58,-55.25 290.58,-55.25 290.58,-85.75"/>
<text text-anchor="start" x="186.58" y="-72.25" font-family="Helvetica,sans-Serif" font-size="10.00">lserializing_Serializing</text>
<text text-anchor="middle" x="234.58" y="-61" font-family="Helvetica,sans-Serif" font-size="10.00">Format.h</text>
</a>
</g>
</g>
<!-- Node1&#45;&gt;Node5 -->
<g id="edge8_Node000001_Node000005" class="edge">
<title>Node1&#45;&gt;Node5</title>
<g id="a_edge8_Node000001_Node000005"><a xlink:title=" ">
<path fill="none" stroke="#63b8ff" d="M159.92,-173.02C178.3,-166.2 197.91,-156 211.58,-141 225.62,-125.59 231.11,-101.4 233.24,-86.01"/>
<polygon fill="#63b8ff" stroke="#63b8ff" points="158.91,-170 150.59,-176.56 161.18,-176.63 158.91,-170"/>
</a>
</g>
</g>
<!-- Node3&#45;&gt;Node2 -->
<g id="edge3_Node000003_Node000002" class="edge">
<title>Node3&#45;&gt;Node2</title>
<g id="a_edge3_Node000003_Node000002"><a xlink:title=" ">
<path fill="none" stroke="#63b8ff" d="M81.66,-51.71C88.85,-41.13 97.67,-28.15 103.45,-19.65"/>
<polygon fill="#63b8ff" stroke="#63b8ff" points="78.38,-49.32 75.65,-59.56 84.17,-53.25 78.38,-49.32"/>
</a>
</g>
</g>
<!-- Node4&#45;&gt;Node2 -->
<g id="edge5_Node000004_Node000002" class="edge">
<title>Node4&#45;&gt;Node2</title>
<g id="a_edge5_Node000004_Node000002"><a xlink:title=" ">
<path fill="none" stroke="#63b8ff" d="M146.77,-110.64C143.53,-95.28 138.33,-73.58 131.58,-55.25 126.86,-42.44 119.59,-28.45 114.71,-19.61"/>
<polygon fill="#63b8ff" stroke="#63b8ff" points="143.54,-111.29 148.94,-120.4 150.4,-109.91 143.54,-111.29"/>
</a>
</g>
</g>
<!-- Node4&#45;&gt;Node5 -->
<g id="edge6_Node000004_Node000005" class="edge">
<title>Node4&#45;&gt;Node5</title>
<g id="a_edge6_Node000004_Node000005"><a xlink:title=" ">
<path fill="none" stroke="#63b8ff" d="M171.99,-115.37C184.84,-106.36 201.11,-94.95 213.84,-86.03"/>
<polygon fill="#63b8ff" stroke="#63b8ff" points="170.52,-112.83 164.34,-121.43 174.53,-118.56 170.52,-112.83"/>
</a>
</g>
</g>
<!-- Node5&#45;&gt;Node2 -->
<g id="edge7_Node000005_Node000002" class="edge">
<title>Node5&#45;&gt;Node2</title>
<g id="a_edge7_Node000005_Node000002"><a xlink:title=" ">
<path fill="none" stroke="#63b8ff" d="M193.65,-50.22C171.81,-39.94 145.96,-27.76 128.75,-19.65"/>
<polygon fill="#63b8ff" stroke="#63b8ff" points="191.82,-53.7 202.36,-54.8 194.8,-47.37 191.82,-53.7"/>
</a>
</g>
</g>
</g>
</svg>
