<?xml version="1.0" encoding="UTF-8" standalone="no"?>
<!DOCTYPE svg PUBLIC "-//W3C//DTD SVG 1.1//EN"
 "http://www.w3.org/Graphics/SVG/1.1/DTD/svg11.dtd">
<!-- Generated by graphviz version 8.0.5 (20230430.1635)
 -->
<!-- Title: lserializing_SerializableData.h Pages: 1 -->
<svg width="728pt" height="105pt"
 viewBox="0.00 0.00 728.00 105.00" xmlns="http://www.w3.org/2000/svg" xmlns:xlink="http://www.w3.org/1999/xlink">
<g id="graph0" class="graph" transform="scale(1 1) rotate(0) translate(4 101)">
<title>lserializing_SerializableData.h</title>
<!-- Node1 -->
<g id="Node000001" class="node">
<title>Node1</title>
<g id="a_Node000001"><a xlink:title="This file defines the SerializableData class.">
<polygon fill="#999999" stroke="#666666" points="367.38,-97 250.12,-97 250.12,-66.5 367.38,-66.5 367.38,-97"/>
<text text-anchor="start" x="258.12" y="-83.5" font-family="Helvetica,sans-Serif" font-size="10.00">lserializing_Serializable</text>
<text text-anchor="middle" x="308.75" y="-72.25" font-family="Helvetica,sans-Serif" font-size="10.00">Data.h</text>
</a>
</g>
</g>
<!-- Node2 -->
<g id="Node000002" class="node">
<title>Node2</title>
<g id="a_Node000002"><a xlink:title=" ">
<polygon fill="#e0e0e0" stroke="#999999" points="65.5,-24.88 0,-24.88 0,-5.63 65.5,-5.63 65.5,-24.88"/>
<text text-anchor="middle" x="32.75" y="-11.38" font-family="Helvetica,sans-Serif" font-size="10.00">string_view</text>
</a>
</g>
</g>
<!-- Node1&#45;&gt;Node2 -->
<g id="edge1_Node000001_Node000002" class="edge">
<title>Node1&#45;&gt;Node2</title>
<g id="a_edge1_Node000001_Node000002"><a xlink:title=" ">
<path fill="none" stroke="#63b8ff" d="M249.63,-70.02C202.04,-60.91 133.63,-46.75 74.75,-30.5 72.6,-29.91 70.41,-29.27 68.2,-28.6"/>
<polygon fill="#63b8ff" stroke="#63b8ff" points="69.51,-25.02 58.92,-25.32 67.38,-31.69 69.51,-25.02"/>
</a>
</g>
</g>
<!-- Node3 -->
<g id="Node000003" class="node">
<title>Node3</title>
<g id="a_Node000003"><a xlink:title=" ">
<polygon fill="#e0e0e0" stroke="#999999" points="123.75,-24.88 83.75,-24.88 83.75,-5.63 123.75,-5.63 123.75,-24.88"/>
<text text-anchor="middle" x="103.75" y="-11.38" font-family="Helvetica,sans-Serif" font-size="10.00">string</text>
</a>
</g>
</g>
<!-- Node1&#45;&gt;Node3 -->
<g id="edge2_Node000001_Node000003" class="edge">
<title>Node1&#45;&gt;Node3</title>
<g id="a_edge2_Node000001_Node000003"><a xlink:title=" ">
<path fill="none" stroke="#63b8ff" d="M250.03,-66.79C215.4,-57.87 171.01,-45.22 132.75,-30.5 132.14,-30.27 131.53,-30.03 130.92,-29.78"/>
<polygon fill="#63b8ff" stroke="#63b8ff" points="132.57,-26.23 122.01,-25.36 129.71,-32.63 132.57,-26.23"/>
</a>
</g>
</g>
<!-- Node4 -->
<g id="Node000004" class="node">
<title>Node4</title>
<g id="a_Node000004"><a xlink:title=" ">
<polygon fill="#e0e0e0" stroke="#999999" points="185.25,-24.88 142.25,-24.88 142.25,-5.63 185.25,-5.63 185.25,-24.88"/>
<text text-anchor="middle" x="163.75" y="-11.38" font-family="Helvetica,sans-Serif" font-size="10.00">vector</text>
</a>
</g>
</g>
<!-- Node1&#45;&gt;Node4 -->
<g id="edge3_Node000001_Node000004" class="edge">
<title>Node1&#45;&gt;Node4</title>
<g id="a_edge3_Node000001_Node000004"><a xlink:title=" ">
<path fill="none" stroke="#63b8ff" d="M275.27,-66.16C252.52,-56.2 221.77,-42.66 194.75,-30.5 194.29,-30.29 193.83,-30.08 193.36,-29.87"/>
<polygon fill="#63b8ff" stroke="#63b8ff" points="194.96,-26.3 184.41,-25.34 192.06,-32.67 194.96,-26.3"/>
</a>
</g>
</g>
<!-- Node5 -->
<g id="Node000005" class="node">
<title>Node5</title>
<g id="a_Node000005"><a xlink:title=" ">
<polygon fill="#e0e0e0" stroke="#999999" points="238.12,-24.88 203.38,-24.88 203.38,-5.63 238.12,-5.63 238.12,-24.88"/>
<text text-anchor="middle" x="220.75" y="-11.38" font-family="Helvetica,sans-Serif" font-size="10.00">map</text>
</a>
</g>
</g>
<!-- Node1&#45;&gt;Node5 -->
<g id="edge4_Node000001_Node000005" class="edge">
<title>Node1&#45;&gt;Node5</title>
<g id="a_edge4_Node000001_Node000005"><a xlink:title=" ">
<path fill="none" stroke="#63b8ff" d="M288.78,-66.11C274.72,-55.81 255.94,-42.04 241.67,-31.58"/>
<polygon fill="#63b8ff" stroke="#63b8ff" points="244.18,-28.35 234.04,-25.26 240.04,-33.99 244.18,-28.35"/>
</a>
</g>
</g>
<!-- Node6 -->
<g id="Node000006" class="node">
<title>Node6</title>
<g id="a_Node000006"><a xlink:title=" ">
<polygon fill="#e0e0e0" stroke="#999999" points="301.38,-24.88 256.12,-24.88 256.12,-5.63 301.38,-5.63 301.38,-24.88"/>
<text text-anchor="middle" x="278.75" y="-11.38" font-family="Helvetica,sans-Serif" font-size="10.00">variant</text>
</a>
</g>
</g>
<!-- Node1&#45;&gt;Node6 -->
<g id="edge5_Node000001_Node000006" class="edge">
<title>Node1&#45;&gt;Node6</title>
<g id="a_edge5_Node000001_Node000006"><a xlink:title=" ">
<path fill="none" stroke="#63b8ff" d="M301.94,-66.11C297.63,-56.83 292,-44.75 287.38,-34.8"/>
<polygon fill="#63b8ff" stroke="#63b8ff" points="290.24,-33.66 282.85,-26.07 283.9,-36.62 290.24,-33.66"/>
</a>
</g>
</g>
<!-- Node7 -->
<g id="Node000007" class="node">
<title>Node7</title>
<g id="a_Node000007"><a xlink:title=" ">
<polygon fill="#e0e0e0" stroke="#999999" points="358.38,-24.88 319.12,-24.88 319.12,-5.63 358.38,-5.63 358.38,-24.88"/>
<text text-anchor="middle" x="338.75" y="-11.38" font-family="Helvetica,sans-Serif" font-size="10.00">utility</text>
</a>
</g>
</g>
<!-- Node1&#45;&gt;Node7 -->
<g id="edge6_Node000001_Node000007" class="edge">
<title>Node1&#45;&gt;Node7</title>
<g id="a_edge6_Node000001_Node000007"><a xlink:title=" ">
<path fill="none" stroke="#63b8ff" d="M315.56,-66.11C319.87,-56.83 325.5,-44.75 330.12,-34.8"/>
<polygon fill="#63b8ff" stroke="#63b8ff" points="333.6,-36.62 334.65,-26.07 327.26,-33.66 333.6,-36.62"/>
</a>
</g>
</g>
<!-- Node8 -->
<g id="Node000008" class="node">
<title>Node8</title>
<g id="a_Node000008"><a xlink:title=" ">
<polygon fill="#e0e0e0" stroke="#999999" points="438.62,-24.88 376.88,-24.88 376.88,-5.63 438.62,-5.63 438.62,-24.88"/>
<text text-anchor="middle" x="407.75" y="-11.38" font-family="Helvetica,sans-Serif" font-size="10.00">type_traits</text>
</a>
</g>
</g>
<!-- Node1&#45;&gt;Node8 -->
<g id="edge7_Node000001_Node000008" class="edge">
<title>Node1&#45;&gt;Node8</title>
<g id="a_edge7_Node000001_Node000008"><a xlink:title=" ">
<path fill="none" stroke="#63b8ff" d="M331.21,-66.11C347.33,-55.61 368.97,-41.52 385.13,-30.99"/>
<polygon fill="#63b8ff" stroke="#63b8ff" points="386.45,-33.65 392.92,-25.26 382.63,-27.79 386.45,-33.65"/>
</a>
</g>
</g>
<!-- Node9 -->
<g id="Node000009" class="node">
<title>Node9</title>
<g id="a_Node000009"><a xlink:title=" ">
<polygon fill="#e0e0e0" stroke="#999999" points="514.75,-24.88 456.75,-24.88 456.75,-5.63 514.75,-5.63 514.75,-24.88"/>
<text text-anchor="middle" x="485.75" y="-11.38" font-family="Helvetica,sans-Serif" font-size="10.00">functional</text>
</a>
</g>
</g>
<!-- Node1&#45;&gt;Node9 -->
<g id="edge8_Node000001_Node000009" class="edge">
<title>Node1&#45;&gt;Node9</title>
<g id="a_edge8_Node000001_Node000009"><a xlink:title=" ">
<path fill="none" stroke="#63b8ff" d="M349.85,-66.04C377.55,-56.09 414.88,-42.6 447.75,-30.5 449.01,-30.03 450.3,-29.56 451.6,-29.08"/>
<polygon fill="#63b8ff" stroke="#63b8ff" points="452.49,-32.11 460.64,-25.34 450.05,-25.55 452.49,-32.11"/>
</a>
</g>
</g>
<!-- Node10 -->
<g id="Node000010" class="node">
<title>Node10</title>
<g id="a_Node000010"><a xlink:title=" ">
<polygon fill="#e0e0e0" stroke="#999999" points="591.12,-24.88 532.38,-24.88 532.38,-5.63 591.12,-5.63 591.12,-24.88"/>
<text text-anchor="middle" x="561.75" y="-11.38" font-family="Helvetica,sans-Serif" font-size="10.00">stdexcept</text>
</a>
</g>
</g>
<!-- Node1&#45;&gt;Node10 -->
<g id="edge9_Node000001_Node000010" class="edge">
<title>Node1&#45;&gt;Node10</title>
<g id="a_edge9_Node000001_Node000010"><a xlink:title=" ">
<path fill="none" stroke="#63b8ff" d="M367.69,-69.12C411.2,-60.02 471.66,-46.28 523.75,-30.5 525.47,-29.98 527.21,-29.42 528.98,-28.84"/>
<polygon fill="#63b8ff" stroke="#63b8ff" points="529.73,-31.94 538.01,-25.32 527.41,-25.33 529.73,-31.94"/>
</a>
</g>
</g>
<!-- Node11 -->
<g id="Node000011" class="node">
<title>Node11</title>
<g id="a_Node000011"><a xlink:title=" ">
<polygon fill="#e0e0e0" stroke="#999999" points="720,-30.5 609.5,-30.5 609.5,0 720,0 720,-30.5"/>
<text text-anchor="start" x="617.5" y="-17" font-family="Helvetica,sans-Serif" font-size="10.00">lserializing/lserializing</text>
<text text-anchor="middle" x="664.75" y="-5.75" font-family="Helvetica,sans-Serif" font-size="10.00">_Export.h</text>
</a>
</g>
</g>
<!-- Node1&#45;&gt;Node11 -->
<g id="edge10_Node000001_Node000011" class="edge">
<title>Node1&#45;&gt;Node11</title>
<g id="a_edge10_Node000001_Node000011"><a xlink:title=" ">
<path fill="none" stroke="#63b8ff" d="M367.69,-71.37C424.22,-62.19 512.23,-47.43 598.35,-30.72"/>
<polygon fill="#63b8ff" stroke="#63b8ff" points="598.97,-33.97 608.11,-28.62 597.63,-27.1 598.97,-33.97"/>
</a>
</g>
</g>
</g>
</svg>
