<?xml version="1.0" encoding="UTF-8" standalone="no"?>
<!DOCTYPE svg PUBLIC "-//W3C//DTD SVG 1.1//EN"
 "http://www.w3.org/Graphics/SVG/1.1/DTD/svg11.dtd">
<!-- Generated by graphviz version 8.0.5 (20230430.1635)
 -->
<!-- Title: lserializing_Printer.h Pages: 1 -->
<!--zoomable 227 -->

<svg id="main" version="1.1" xmlns="http://www.w3.org/2000/svg" xmlns:xlink="http://www.w3.org/1999/xlink" xml:space="preserve" onload="init(evt)">
<style type="text/css"><![CDATA[
.node, .edge {opacity: 0.7;}
.node.selected, .edge.selected {opacity: 1;}
.edge:hover path { stroke: red; }
.edge:hover polygon { stroke: red; fill: red; }
]]></style>

<defs>
  <circle id="rim" cx="0" cy="0" r="7"/>
  <circle id="rim2" cx="0" cy="0" r="3.5"/>
  <g id="zoomPlus">
    <use xlink:href="#rim" fill="#404040"><set attributeName="fill" to="#808080" begin="zoomplus.mouseover" end="zoomplus.mouseout"/></use>
    <path d="M-4,0h8M0,-4v8" fill="none" stroke="white" stroke-width="1.5" pointer-events="none"/>
  </g>
  <g id="zoomMin">
    <use xlink:href="#rim" fill="#404040"><set attributeName="fill" to="#808080" begin="zoomminus.mouseover" end="zoomminus.mouseout"/></use>
    <path d="M-4,0h8" fill="none" stroke="white" stroke-width="1.5" pointer-events="none"/>
  </g>
  <g id="arrowUp" transform="translate(30 24)">
    <use xlink:href="#rim"/>
    <path pointer-events="none" fill="none" stroke="white" stroke-width="1.5" d="M0,-3.0v7 M-2.5,-0.5L0,-3.0L2.5,-0.5"/>
  </g>
  <g id="arrowRight" transform="rotate(90) translate(36 -43)">
    <use xlink:href="#rim"/>
    <path pointer-events="none" fill="none" stroke="white" stroke-width="1.5" d="M0,-3.0v7 M-2.5,-0.5L0,-3.0L2.5,-0.5"/>
  </g>
  <g id="arrowDown" transform="rotate(180) translate(-30 -48)">
    <use xlink:href="#rim"/>
    <path pointer-events="none" fill="none" stroke="white" stroke-width="1.5" d="M0,-3.0v7 M-2.5,-0.5L0,-3.0L2.5,-0.5"/>
  </g>
  <g id="arrowLeft" transform="rotate(270) translate(-36 17)">
    <use xlink:href="#rim"/>
    <path pointer-events="none" fill="none" stroke="white" stroke-width="1.5" d="M0,-3.0v7 M-2.5,-0.5L0,-3.0L2.5,-0.5"/>
  </g>
  <g id="resetDef">
    <use xlink:href="#rim2" fill="#404040"><set attributeName="fill" to="#808080" begin="reset.mouseover" end="reset.mouseout"/></use>
  </g>
</defs>
<script type="application/ecmascript">
var viewWidth = 727;
var viewHeight = 227;
var sectionId = 'dynsection-0';
</script>
<script type="application/ecmascript" xlink:href="svg.min.js"/>
<svg id="graph" class="graph">
<g id="viewport">
<title>lserializing_Printer.h</title>
<!-- Node1 -->
<g id="Node000001" class="node">
<title>Node1</title>
<g id="a_Node000001"><a xlink:title="This file defines the serializing::Printer class.">
<polygon fill="#999999" stroke="#666666" points="160.25,-218.75 57.25,-218.75 57.25,-199.5 160.25,-199.5 160.25,-218.75"/>
<text text-anchor="middle" x="108.75" y="-205.25" font-family="Helvetica,sans-Serif" font-size="10.00">lserializing_Printer.h</text>
</a>
</g>
</g>
<!-- Node2 -->
<g id="Node000002" class="node">
<title>Node2</title>
<g id="a_Node000002"><a xlink:title=" ">
<polygon fill="#e0e0e0" stroke="#999999" points="65.5,-24.88 0,-24.88 0,-5.63 65.5,-5.63 65.5,-24.88"/>
<text text-anchor="middle" x="32.75" y="-11.38" font-family="Helvetica,sans-Serif" font-size="10.00">string_view</text>
</a>
</g>
</g>
<!-- Node1&#45;&gt;Node2 -->
<g id="edge1_Node000001_Node000002" class="edge">
<title>Node1&#45;&gt;Node2</title>
<g id="a_edge1_Node000001_Node000002"><a xlink:title=" ">
<path fill="none" stroke="#63b8ff" d="M105.19,-199.13C93.52,-169.66 56.27,-75.64 40.23,-35.12"/>
<polygon fill="#63b8ff" stroke="#63b8ff" points="43.16,-34.02 36.22,-26.01 36.65,-36.59 43.16,-34.02"/>
</a>
</g>
</g>
<!-- Node3 -->
<g id="Node000003" class="node">
<title>Node3</title>
<g id="a_Node000003"><a xlink:title=" ">
<polygon fill="#e0e0e0" stroke="#999999" points="123.75,-24.88 83.75,-24.88 83.75,-5.63 123.75,-5.63 123.75,-24.88"/>
<text text-anchor="middle" x="103.75" y="-11.38" font-family="Helvetica,sans-Serif" font-size="10.00">string</text>
</a>
</g>
</g>
<!-- Node1&#45;&gt;Node3 -->
<g id="edge2_Node000001_Node000003" class="edge">
<title>Node1&#45;&gt;Node3</title>
<g id="a_edge2_Node000001_Node000003"><a xlink:title=" ">
<path fill="none" stroke="#63b8ff" d="M108.52,-199.13C107.75,-169.85 105.33,-76.85 104.26,-35.91"/>
<polygon fill="#63b8ff" stroke="#63b8ff" points="107.74,-35.91 103.98,-26.01 100.74,-36.09 107.74,-35.91"/>
</a>
</g>
</g>
<!-- Node4 -->
<g id="Node000004" class="node">
<title>Node4</title>
<g id="a_Node000004"><a xlink:title=" ">
<polygon fill="#e0e0e0" stroke="#999999" points="252,-30.5 141.5,-30.5 141.5,0 252,0 252,-30.5"/>
<text text-anchor="start" x="149.5" y="-17" font-family="Helvetica,sans-Serif" font-size="10.00">lserializing/lserializing</text>
<text text-anchor="middle" x="196.75" y="-5.75" font-family="Helvetica,sans-Serif" font-size="10.00">_Export.h</text>
</a>
</g>
</g>
<!-- Node1&#45;&gt;Node4 -->
<g id="edge3_Node000001_Node000004" class="edge">
<title>Node1&#45;&gt;Node4</title>
<g id="a_edge3_Node000001_Node000004"><a xlink:title=" ">
<path fill="none" stroke="#63b8ff" d="M112.88,-199.13C125.78,-170.99 165.7,-83.96 185.45,-40.9"/>
<polygon fill="#63b8ff" stroke="#63b8ff" points="189.02,-42.51 190,-31.96 182.65,-39.59 189.02,-42.51"/>
</a>
</g>
</g>
<!-- Node5 -->
<g id="Node000005" class="node">
<title>Node5</title>
<g id="a_Node000005"><a xlink:href="lserializing___node_8h.html" target="_top" xlink:title="This file defines the Node class.">
<polygon fill="white" stroke="#666666" points="395,-163.5 284.5,-163.5 284.5,-133 395,-133 395,-163.5"/>
<text text-anchor="start" x="292.5" y="-150" font-family="Helvetica,sans-Serif" font-size="10.00">lserializing/lserializing</text>
<text text-anchor="middle" x="339.75" y="-138.75" font-family="Helvetica,sans-Serif" font-size="10.00">_Node.h</text>
</a>
</g>
</g>
<!-- Node1&#45;&gt;Node5 -->
<g id="edge4_Node000001_Node000005" class="edge">
<title>Node1&#45;&gt;Node5</title>
<g id="a_edge4_Node000001_Node000005"><a xlink:title=" ">
<path fill="none" stroke="#63b8ff" d="M144.34,-199.05C178.76,-190.28 231.74,-176.78 273.86,-166.04"/>
<polygon fill="#63b8ff" stroke="#63b8ff" points="274.49,-169.24 283.32,-163.38 272.76,-162.46 274.49,-169.24"/>
</a>
</g>
</g>
<!-- Node5&#45;&gt;Node2 -->
<g id="edge5_Node000005_Node000002" class="edge">
<title>Node5&#45;&gt;Node2</title>
<g id="a_edge5_Node000005_Node000002"><a xlink:title=" ">
<path fill="none" stroke="#63b8ff" d="M293.5,-132.56C265.23,-123.2 228.53,-110.35 196.75,-97 146.85,-76.04 90.65,-47.17 58.69,-30.23"/>
<polygon fill="#63b8ff" stroke="#63b8ff" points="60.68,-26.79 50.21,-25.17 57.39,-32.97 60.68,-26.79"/>
</a>
</g>
</g>
<!-- Node5&#45;&gt;Node3 -->
<g id="edge6_Node000005_Node000003" class="edge">
<title>Node5&#45;&gt;Node3</title>
<g id="a_edge6_Node000005_Node000003"><a xlink:title=" ">
<path fill="none" stroke="#63b8ff" d="M313.59,-132.73C268.07,-107.46 174.83,-55.7 129.55,-30.57"/>
<polygon fill="#63b8ff" stroke="#63b8ff" points="131.59,-27.14 121.15,-25.35 128.19,-33.26 131.59,-27.14"/>
</a>
</g>
</g>
<!-- Node5&#45;&gt;Node4 -->
<g id="edge25_Node000005_Node000004" class="edge">
<title>Node5&#45;&gt;Node4</title>
<g id="a_edge25_Node000005_Node000004"><a xlink:title=" ">
<path fill="none" stroke="#63b8ff" d="M323.9,-132.73C298.88,-109.81 250.08,-65.1 220.75,-38.23"/>
<polygon fill="#63b8ff" stroke="#63b8ff" points="223.41,-36.01 213.67,-31.83 218.68,-41.17 223.41,-36.01"/>
</a>
</g>
</g>
<!-- Node6 -->
<g id="Node000006" class="node">
<title>Node6</title>
<g id="a_Node000006"><a xlink:title=" ">
<polygon fill="#e0e0e0" stroke="#999999" points="313.25,-24.88 270.25,-24.88 270.25,-5.63 313.25,-5.63 313.25,-24.88"/>
<text text-anchor="middle" x="291.75" y="-11.38" font-family="Helvetica,sans-Serif" font-size="10.00">vector</text>
</a>
</g>
</g>
<!-- Node5&#45;&gt;Node6 -->
<g id="edge7_Node000005_Node000006" class="edge">
<title>Node5&#45;&gt;Node6</title>
<g id="a_edge7_Node000005_Node000006"><a xlink:title=" ">
<path fill="none" stroke="#63b8ff" d="M330.76,-132.74C324.98,-122.94 317.67,-109.54 312.75,-97 304.75,-76.6 298.87,-52.11 295.4,-35.49"/>
<polygon fill="#63b8ff" stroke="#63b8ff" points="298.69,-35.07 293.3,-25.95 291.82,-36.44 298.69,-35.07"/>
</a>
</g>
</g>
<!-- Node7 -->
<g id="Node000007" class="node">
<title>Node7</title>
<g id="a_Node000007"><a xlink:title=" ">
<polygon fill="#e0e0e0" stroke="#999999" points="366.12,-24.88 331.38,-24.88 331.38,-5.63 366.12,-5.63 366.12,-24.88"/>
<text text-anchor="middle" x="348.75" y="-11.38" font-family="Helvetica,sans-Serif" font-size="10.00">map</text>
</a>
</g>
</g>
<!-- Node5&#45;&gt;Node7 -->
<g id="edge8_Node000005_Node000007" class="edge">
<title>Node5&#45;&gt;Node7</title>
<g id="a_edge8_Node000005_Node000007"><a xlink:title=" ">
<path fill="none" stroke="#63b8ff" d="M330.91,-132.64C322.24,-116.44 311.21,-89.56 317.75,-66.5 321.11,-54.64 328.16,-42.84 334.68,-33.65"/>
<polygon fill="#63b8ff" stroke="#63b8ff" points="337.88,-36.23 341.11,-26.14 332.29,-32.01 337.88,-36.23"/>
</a>
</g>
</g>
<!-- Node8 -->
<g id="Node000008" class="node">
<title>Node8</title>
<g id="a_Node000008"><a xlink:title=" ">
<polygon fill="#e0e0e0" stroke="#999999" points="429.38,-24.88 384.12,-24.88 384.12,-5.63 429.38,-5.63 429.38,-24.88"/>
<text text-anchor="middle" x="406.75" y="-11.38" font-family="Helvetica,sans-Serif" font-size="10.00">variant</text>
</a>
</g>
</g>
<!-- Node5&#45;&gt;Node8 -->
<g id="edge9_Node000005_Node000008" class="edge">
<title>Node5&#45;&gt;Node8</title>
<g id="a_edge9_Node000005_Node000008"><a xlink:title=" ">
<path fill="none" stroke="#63b8ff" d="M395.23,-134.18C414.62,-126.66 434.37,-114.99 445.75,-97 459.13,-75.86 440.34,-49.44 424.5,-32.7"/>
<polygon fill="#63b8ff" stroke="#63b8ff" points="427.66,-30.91 418.11,-26.32 422.72,-35.87 427.66,-30.91"/>
</a>
</g>
</g>
<!-- Node9 -->
<g id="Node000009" class="node">
<title>Node9</title>
<g id="a_Node000009"><a xlink:title=" ">
<polygon fill="#e0e0e0" stroke="#999999" points="486.38,-24.88 447.12,-24.88 447.12,-5.63 486.38,-5.63 486.38,-24.88"/>
<text text-anchor="middle" x="466.75" y="-11.38" font-family="Helvetica,sans-Serif" font-size="10.00">utility</text>
</a>
</g>
</g>
<!-- Node5&#45;&gt;Node9 -->
<g id="edge10_Node000005_Node000009" class="edge">
<title>Node5&#45;&gt;Node9</title>
<g id="a_edge10_Node000005_Node000009"><a xlink:title=" ">
<path fill="none" stroke="#63b8ff" d="M395.36,-138.37C420.12,-131.41 447.15,-119.02 462.75,-97 475.27,-79.32 474.15,-53.6 471.28,-35.96"/>
<polygon fill="#63b8ff" stroke="#63b8ff" points="474.53,-35.38 469.16,-26.24 467.67,-36.73 474.53,-35.38"/>
</a>
</g>
</g>
<!-- Node10 -->
<g id="Node000010" class="node">
<title>Node10</title>
<g id="a_Node000010"><a xlink:title=" ">
<polygon fill="#e0e0e0" stroke="#999999" points="566.62,-24.88 504.88,-24.88 504.88,-5.63 566.62,-5.63 566.62,-24.88"/>
<text text-anchor="middle" x="535.75" y="-11.38" font-family="Helvetica,sans-Serif" font-size="10.00">type_traits</text>
</a>
</g>
</g>
<!-- Node5&#45;&gt;Node10 -->
<g id="edge11_Node000005_Node000010" class="edge">
<title>Node5&#45;&gt;Node10</title>
<g id="a_edge11_Node000005_Node000010"><a xlink:title=" ">
<path fill="none" stroke="#63b8ff" d="M395.49,-136.62C423.8,-129.12 457.47,-116.78 482.75,-97 503.75,-80.57 519.11,-53.4 527.73,-35.17"/>
<polygon fill="#63b8ff" stroke="#63b8ff" points="531.33,-36.7 532.22,-26.15 524.94,-33.84 531.33,-36.7"/>
</a>
</g>
</g>
<!-- Node11 -->
<g id="Node000011" class="node">
<title>Node11</title>
<g id="a_Node000011"><a xlink:title=" ">
<polygon fill="#e0e0e0" stroke="#999999" points="642.75,-24.88 584.75,-24.88 584.75,-5.63 642.75,-5.63 642.75,-24.88"/>
<text text-anchor="middle" x="613.75" y="-11.38" font-family="Helvetica,sans-Serif" font-size="10.00">functional</text>
</a>
</g>
</g>
<!-- Node5&#45;&gt;Node11 -->
<g id="edge12_Node000005_Node000011" class="edge">
<title>Node5&#45;&gt;Node11</title>
<g id="a_edge12_Node000005_Node000011"><a xlink:title=" ">
<path fill="none" stroke="#63b8ff" d="M395.29,-136.55C429.77,-128.57 474.3,-115.76 510.75,-97 544.39,-79.69 577.84,-50.74 597.12,-32.61"/>
<polygon fill="#63b8ff" stroke="#63b8ff" points="599.13,-35.57 603.93,-26.12 594.29,-30.52 599.13,-35.57"/>
</a>
</g>
</g>
<!-- Node12 -->
<g id="Node000012" class="node">
<title>Node12</title>
<g id="a_Node000012"><a xlink:title=" ">
<polygon fill="#e0e0e0" stroke="#999999" points="719.12,-24.88 660.38,-24.88 660.38,-5.63 719.12,-5.63 719.12,-24.88"/>
<text text-anchor="middle" x="689.75" y="-11.38" font-family="Helvetica,sans-Serif" font-size="10.00">stdexcept</text>
</a>
</g>
</g>
<!-- Node5&#45;&gt;Node12 -->
<g id="edge13_Node000005_Node000012" class="edge">
<title>Node5&#45;&gt;Node12</title>
<g id="a_edge13_Node000005_Node000012"><a xlink:title=" ">
<path fill="none" stroke="#63b8ff" d="M395.35,-138.2C438,-130.23 497.84,-116.76 547.75,-97 592.6,-79.24 640.55,-49.43 667.67,-31.42"/>
<polygon fill="#63b8ff" stroke="#63b8ff" points="669.33,-33.85 675.68,-25.37 665.42,-28.04 669.33,-33.85"/>
</a>
</g>
</g>
<!-- Node13 -->
<g id="Node000013" class="node">
<title>Node13</title>
<g id="a_Node000013"><a xlink:href="lserializing___serializable_data_8h.html" target="_top" xlink:title="This file defines the SerializableData class.">
<polygon fill="white" stroke="#666666" points="437,-97 326.5,-97 326.5,-66.5 437,-66.5 437,-97"/>
<text text-anchor="start" x="334.5" y="-83.5" font-family="Helvetica,sans-Serif" font-size="10.00">lserializing/lserializing</text>
<text text-anchor="middle" x="381.75" y="-72.25" font-family="Helvetica,sans-Serif" font-size="10.00">_SerializableData.h</text>
</a>
</g>
</g>
<!-- Node5&#45;&gt;Node13 -->
<g id="edge14_Node000005_Node000013" class="edge">
<title>Node5&#45;&gt;Node13</title>
<g id="a_edge14_Node000005_Node000013"><a xlink:title=" ">
<path fill="none" stroke="#63b8ff" d="M349.28,-132.61C354.33,-124.86 360.65,-115.15 366.37,-106.36"/>
<polygon fill="#63b8ff" stroke="#63b8ff" points="369.73,-108.62 372.26,-98.33 363.87,-104.8 369.73,-108.62"/>
</a>
</g>
</g>
<!-- Node13&#45;&gt;Node2 -->
<g id="edge15_Node000013_Node000002" class="edge">
<title>Node13&#45;&gt;Node2</title>
<g id="a_edge15_Node000013_Node000002"><a xlink:title=" ">
<path fill="none" stroke="#63b8ff" d="M326.01,-74.43C264.06,-66.77 161.34,-52.12 74.75,-30.5 72.29,-29.89 69.77,-29.19 67.25,-28.46"/>
<polygon fill="#63b8ff" stroke="#63b8ff" points="68.57,-24.89 57.98,-25.23 66.47,-31.57 68.57,-24.89"/>
</a>
</g>
</g>
<!-- Node13&#45;&gt;Node3 -->
<g id="edge16_Node000013_Node000003" class="edge">
<title>Node13&#45;&gt;Node3</title>
<g id="a_edge16_Node000013_Node000003"><a xlink:title=" ">
<path fill="none" stroke="#63b8ff" d="M326.28,-73.74C275.09,-66.29 197.46,-52.52 132.75,-30.5 131.84,-30.19 130.93,-29.86 130.01,-29.51"/>
<polygon fill="#63b8ff" stroke="#63b8ff" points="131.87,-26.07 121.31,-25.29 129.08,-32.49 131.87,-26.07"/>
</a>
</g>
</g>
<!-- Node13&#45;&gt;Node4 -->
<g id="edge24_Node000013_Node000004" class="edge">
<title>Node13&#45;&gt;Node4</title>
<g id="a_edge24_Node000013_Node000004"><a xlink:title=" ">
<path fill="none" stroke="#63b8ff" d="M339.77,-66.11C312.9,-56.75 277.83,-44.52 249.14,-34.51"/>
<polygon fill="#63b8ff" stroke="#63b8ff" points="250.48,-30.93 239.88,-30.94 248.17,-37.54 250.48,-30.93"/>
</a>
</g>
</g>
<!-- Node13&#45;&gt;Node6 -->
<g id="edge17_Node000013_Node000006" class="edge">
<title>Node13&#45;&gt;Node6</title>
<g id="a_edge17_Node000013_Node000006"><a xlink:title=" ">
<path fill="none" stroke="#63b8ff" d="M361.33,-66.11C346.95,-55.81 327.74,-42.04 313.15,-31.58"/>
<polygon fill="#63b8ff" stroke="#63b8ff" points="315.49,-28.24 305.32,-25.26 311.41,-33.93 315.49,-28.24"/>
</a>
</g>
</g>
<!-- Node13&#45;&gt;Node7 -->
<g id="edge18_Node000013_Node000007" class="edge">
<title>Node13&#45;&gt;Node7</title>
<g id="a_edge18_Node000013_Node000007"><a xlink:title=" ">
<path fill="none" stroke="#63b8ff" d="M374.26,-66.11C369.51,-56.83 363.33,-44.75 358.24,-34.8"/>
<polygon fill="#63b8ff" stroke="#63b8ff" points="360.93,-33.38 353.26,-26.07 354.7,-36.57 360.93,-33.38"/>
</a>
</g>
</g>
<!-- Node13&#45;&gt;Node8 -->
<g id="edge19_Node000013_Node000008" class="edge">
<title>Node13&#45;&gt;Node8</title>
<g id="a_edge19_Node000013_Node000008"><a xlink:title=" ">
<path fill="none" stroke="#63b8ff" d="M387.42,-66.11C390.98,-56.93 395.61,-45 399.44,-35.11"/>
<polygon fill="#63b8ff" stroke="#63b8ff" points="402.98,-36.66 403.33,-26.07 396.45,-34.13 402.98,-36.66"/>
</a>
</g>
</g>
<!-- Node13&#45;&gt;Node9 -->
<g id="edge20_Node000013_Node000009" class="edge">
<title>Node13&#45;&gt;Node9</title>
<g id="a_edge20_Node000013_Node000009"><a xlink:title=" ">
<path fill="none" stroke="#63b8ff" d="M401.04,-66.11C414.57,-55.85 432.63,-42.14 446.39,-31.7"/>
<polygon fill="#63b8ff" stroke="#63b8ff" points="448.27,-33.91 454.12,-25.07 444.04,-28.33 448.27,-33.91"/>
</a>
</g>
</g>
<!-- Node13&#45;&gt;Node10 -->
<g id="edge21_Node000013_Node000010" class="edge">
<title>Node13&#45;&gt;Node10</title>
<g id="a_edge21_Node000013_Node000010"><a xlink:title=" ">
<path fill="none" stroke="#63b8ff" d="M416.69,-66.11C443.06,-55.07 478.91,-40.06 504.36,-29.4"/>
<polygon fill="#63b8ff" stroke="#63b8ff" points="505.37,-32.35 513.24,-25.26 502.66,-25.89 505.37,-32.35"/>
</a>
</g>
</g>
<!-- Node13&#45;&gt;Node11 -->
<g id="edge22_Node000013_Node000011" class="edge">
<title>Node13&#45;&gt;Node11</title>
<g id="a_edge22_Node000013_Node000011"><a xlink:title=" ">
<path fill="none" stroke="#63b8ff" d="M437.38,-67.99C476.41,-58.64 529.64,-45.07 575.75,-30.5 577.46,-29.96 579.2,-29.39 580.96,-28.79"/>
<polygon fill="#63b8ff" stroke="#63b8ff" points="581.73,-31.88 589.98,-25.23 579.38,-25.28 581.73,-31.88"/>
</a>
</g>
</g>
<!-- Node13&#45;&gt;Node12 -->
<g id="edge23_Node000013_Node000012" class="edge">
<title>Node13&#45;&gt;Node12</title>
<g id="a_edge23_Node000013_Node000012"><a xlink:title=" ">
<path fill="none" stroke="#63b8ff" d="M437.47,-73.29C492.52,-65.24 578.83,-50.79 651.75,-30.5 653.52,-30.01 655.33,-29.47 657.15,-28.89"/>
<polygon fill="#63b8ff" stroke="#63b8ff" points="658.14,-31.91 666.46,-25.35 655.87,-25.29 658.14,-31.91"/>
</a>
</g>
</g>
</g>
</svg>

<g id="navigator" transform="translate(0 0)" fill="#404254">
  <rect fill="#f2f5e9" fill-opacity="0.5" stroke="#606060" stroke-width=".5" x="0" y="0" width="60" height="60"/>
  <use id="zoomplus" xlink:href="#zoomPlus" x="17" y="9" onmousedown="handleZoom(evt,'in')"/>
  <use id="zoomminus" xlink:href="#zoomMin" x="42" y="9" onmousedown="handleZoom(evt,'out')"/>
  <use id="reset" xlink:href="#resetDef" x="30" y="36" onmousedown="handleReset()"/>
   <use id="arrowup" xlink:href="#arrowUp" x="0" y="0" onmousedown="handlePan(0,-1)"/>
  <use id="arrowright" xlink:href="#arrowRight" x="0" y="0" onmousedown="handlePan(1,0)"/>
  <use id="arrowdown" xlink:href="#arrowDown" x="0" y="0" onmousedown="handlePan(0,1)"/>
  <use id="arrowleft" xlink:href="#arrowLeft" x="0" y="0" onmousedown="handlePan(-1,0)"/>
</g>
<svg viewBox="0 0 15 15" width="100%" height="30px" preserveAspectRatio="xMaxYMin meet">
 <g id="arrow_out" transform="scale(0.3 0.3)">
  <a xlink:href="lserializing___printer_8h__incl_org.svg" target="_base">
   <rect id="button" ry="5" rx="5" y="6" x="6" height="38" width="38"
        fill="#f2f5e9" fill-opacity="0.5" stroke="#606060" stroke-width="1.0"/>
   <path id="arrow"
     d="M 11.500037,31.436501 C 11.940474,20.09759 22.043105,11.32322 32.158766,21.979434 L 37.068811,17.246167 C 37.068811,17.246167 37.088388,32 37.088388,32 L 22.160133,31.978069 C 22.160133,31.978069 26.997745,27.140456 26.997745,27.140456 C 18.528582,18.264221 13.291696,25.230495 11.500037,31.436501 z"
     style="fill:#404040;"/>
  </a>
 </g>
</svg>

<style type='text/css'>
<![CDATA[
[data-mouse-over-selected='false'] { opacity: 0.7; }
[data-mouse-over-selected='true']  { opacity: 1.0; }
]]>
</style>
<script type="application/ecmascript"><![CDATA[
document.addEventListener('DOMContentLoaded', (event) => {
  highlightEdges();
  highlightAdjacentNodes();
});
]]></script>
</svg>
