<?xml version="1.0" encoding="UTF-8" standalone="no"?>
<!DOCTYPE svg PUBLIC "-//W3C//DTD SVG 1.1//EN"
 "http://www.w3.org/Graphics/SVG/1.1/DTD/svg11.dtd">
<!-- Generated by graphviz version 8.0.5 (20230430.1635)
 -->
<!-- Title: lserializing_Schema.h Pages: 1 -->
<svg width="162pt" height="149pt"
 viewBox="0.00 0.00 161.62 149.00" xmlns="http://www.w3.org/2000/svg" xmlns:xlink="http://www.w3.org/1999/xlink">

<svg id="main" version="1.1" xmlns="http://www.w3.org/2000/svg" xmlns:xlink="http://www.w3.org/1999/xlink" xml:space="preserve" onload="init(evt)">
<style type="text/css"><![CDATA[
.node, .edge {opacity: 0.7;}
.node.selected, .edge.selected {opacity: 1;}
.edge:hover path { stroke: red; }
.edge:hover polygon { stroke: red; fill: red; }
]]></style>
<script type="application/ecmascript" xlink:href="svg.min.js"/>
<svg id="graph" class="graph">
<g id="graph0" class="graph" transform="scale(1 1) rotate(0) translate(4 145)">
<title>lserializing_Schema.h</title>
<!-- Node1 -->
<g id="Node000001" class="node">
<title>Node1</title>
<g id="a_Node000001"><a xlink:title="This file defines the serializing::Schema class.">
<polygon fill="#999999" stroke="#666666" points="111.25,-141 0,-141 0,-121.75 111.25,-121.75 111.25,-141"/>
<text text-anchor="middle" x="55.62" y="-127.5" font-family="Helvetica,sans-Serif" font-size="10.00">lserializing_Schema.h</text>
</a>
</g>
</g>
<!-- Node2 -->
<g id="Node000002" class="node">
<title>Node2</title>
<g id="a_Node000002"><a xlink:href="lserializing_8h.html" target="_top" xlink:title="The main header for the limes_serializing library.">
<polygon fill="white" stroke="#666666" points="90.62,-19.25 20.62,-19.25 20.62,0 90.62,0 90.62,-19.25"/>
<text text-anchor="middle" x="55.62" y="-5.75" font-family="Helvetica,sans-Serif" font-size="10.00">lserializing.h</text>
</a>
</g>
</g>
<!-- Node1&#45;&gt;Node2 -->
<g id="edge1_Node000001_Node000002" class="edge">
<title>Node1&#45;&gt;Node2</title>
<g id="a_edge1_Node000001_Node000002"><a xlink:title=" ">
<path fill="none" stroke="#63b8ff" d="M43.73,-112.15C39.32,-104.35 34.85,-94.94 32.62,-85.75 29.43,-72.58 29.43,-68.42 32.62,-55.25 35.83,-42.04 43.67,-28.36 49.31,-19.68"/>
<polygon fill="#63b8ff" stroke="#63b8ff" points="41.12,-113.59 49.31,-120.32 47.1,-109.95 41.12,-113.59"/>
</a>
</g>
</g>
<!-- Node3 -->
<g id="Node000003" class="node">
<title>Node3</title>
<g id="a_Node000003"><a xlink:href="lserializing___serializing_format_8h.html" target="_top" xlink:title="This file defines the serializing::Format class.">
<polygon fill="white" stroke="#666666" points="153.62,-85.75 41.63,-85.75 41.63,-55.25 153.62,-55.25 153.62,-85.75"/>
<text text-anchor="start" x="49.62" y="-72.25" font-family="Helvetica,sans-Serif" font-size="10.00">lserializing_Serializing</text>
<text text-anchor="middle" x="97.62" y="-61" font-family="Helvetica,sans-Serif" font-size="10.00">Format.h</text>
</a>
</g>
</g>
<!-- Node1&#45;&gt;Node3 -->
<g id="edge2_Node000001_Node000003" class="edge">
<title>Node1&#45;&gt;Node3</title>
<g id="a_edge2_Node000001_Node000003"><a xlink:title=" ">
<path fill="none" stroke="#63b8ff" d="M68.25,-112.68C74.32,-104.17 81.51,-94.09 87.26,-86.03"/>
<polygon fill="#63b8ff" stroke="#63b8ff" points="64.96,-110.26 62,-120.43 70.66,-114.32 64.96,-110.26"/>
</a>
</g>
</g>
<!-- Node3&#45;&gt;Node2 -->
<g id="edge3_Node000003_Node000002" class="edge">
<title>Node3&#45;&gt;Node2</title>
<g id="a_edge3_Node000003_Node000002"><a xlink:title=" ">
<path fill="none" stroke="#63b8ff" d="M80.94,-46.11C74.33,-36.84 67.13,-26.75 62.1,-19.7"/>
<polygon fill="#63b8ff" stroke="#63b8ff" points="78.59,-47.84 87.24,-53.95 84.28,-43.77 78.59,-47.84"/>
</a>
</g>
</g>
</g>
</svg>
</svg>

<style type='text/css'>
<![CDATA[
[data-mouse-over-selected='false'] { opacity: 0.7; }
[data-mouse-over-selected='true']  { opacity: 1.0; }
]]>
</style>
<script type="application/ecmascript"><![CDATA[
document.addEventListener('DOMContentLoaded', (event) => {
  highlightEdges();
  highlightAdjacentNodes();
});
]]></script>
</svg>
