<?xml version="1.0" encoding="UTF-8" standalone="no"?>
<!DOCTYPE svg PUBLIC "-//W3C//DTD SVG 1.1//EN"
 "http://www.w3.org/Graphics/SVG/1.1/DTD/svg11.dtd">
<!-- Generated by graphviz version 8.0.5 (20230430.1635)
 -->
<!-- Title: lserializing_KnownFormats.h Pages: 1 -->
<svg width="490pt" height="94pt"
 viewBox="0.00 0.00 489.62 93.75" xmlns="http://www.w3.org/2000/svg" xmlns:xlink="http://www.w3.org/1999/xlink">

<svg id="main" version="1.1" xmlns="http://www.w3.org/2000/svg" xmlns:xlink="http://www.w3.org/1999/xlink" xml:space="preserve" onload="init(evt)">
<style type="text/css"><![CDATA[
.node, .edge {opacity: 0.7;}
.node.selected, .edge.selected {opacity: 1;}
.edge:hover path { stroke: red; }
.edge:hover polygon { stroke: red; fill: red; }
]]></style>
<script type="application/ecmascript" xlink:href="svg.min.js"/>
<svg id="graph" class="graph">
<g id="graph0" class="graph" transform="scale(1 1) rotate(0) translate(4 89.75)">
<title>lserializing_KnownFormats.h</title>
<!-- Node1 -->
<g id="Node000001" class="node">
<title>Node1</title>
<g id="a_Node000001"><a xlink:title="This file defines the serializing::KnownFormats class.">
<polygon fill="#999999" stroke="#666666" points="289,-85.75 147.75,-85.75 147.75,-66.5 289,-66.5 289,-85.75"/>
<text text-anchor="middle" x="218.38" y="-72.25" font-family="Helvetica,sans-Serif" font-size="10.00">lserializing_KnownFormats.h</text>
</a>
</g>
</g>
<!-- Node2 -->
<g id="Node000002" class="node">
<title>Node2</title>
<g id="a_Node000002"><a xlink:title=" ">
<polygon fill="#e0e0e0" stroke="#999999" points="58.75,-24.88 0,-24.88 0,-5.63 58.75,-5.63 58.75,-24.88"/>
<text text-anchor="middle" x="29.38" y="-11.38" font-family="Helvetica,sans-Serif" font-size="10.00">stdexcept</text>
</a>
</g>
</g>
<!-- Node1&#45;&gt;Node2 -->
<g id="edge1_Node000001_Node000002" class="edge">
<title>Node1&#45;&gt;Node2</title>
<g id="a_edge1_Node000001_Node000002"><a xlink:title=" ">
<path fill="none" stroke="#63b8ff" d="M185.17,-66.05C154.43,-57.47 107.55,-43.95 67.38,-30.5 65.87,-30 64.34,-29.47 62.79,-28.93"/>
<polygon fill="#63b8ff" stroke="#63b8ff" points="64.19,-25.35 53.59,-25.26 61.81,-31.94 64.19,-25.35"/>
</a>
</g>
</g>
<!-- Node3 -->
<g id="Node000003" class="node">
<title>Node3</title>
<g id="a_Node000003"><a xlink:title=" ">
<polygon fill="#e0e0e0" stroke="#999999" points="128,-24.88 76.75,-24.88 76.75,-5.63 128,-5.63 128,-24.88"/>
<text text-anchor="middle" x="102.38" y="-11.38" font-family="Helvetica,sans-Serif" font-size="10.00">memory</text>
</a>
</g>
</g>
<!-- Node1&#45;&gt;Node3 -->
<g id="edge2_Node000001_Node000003" class="edge">
<title>Node1&#45;&gt;Node3</title>
<g id="a_edge2_Node000001_Node000003"><a xlink:title=" ">
<path fill="none" stroke="#63b8ff" d="M200.5,-66.05C181.63,-56.48 151.64,-41.25 129.78,-30.16"/>
<polygon fill="#63b8ff" stroke="#63b8ff" points="131.58,-26.64 121.08,-25.23 128.41,-32.88 131.58,-26.64"/>
</a>
</g>
</g>
<!-- Node4 -->
<g id="Node000004" class="node">
<title>Node4</title>
<g id="a_Node000004"><a xlink:title=" ">
<polygon fill="#e0e0e0" stroke="#999999" points="208.25,-24.88 146.5,-24.88 146.5,-5.63 208.25,-5.63 208.25,-24.88"/>
<text text-anchor="middle" x="177.38" y="-11.38" font-family="Helvetica,sans-Serif" font-size="10.00">type_traits</text>
</a>
</g>
</g>
<!-- Node1&#45;&gt;Node4 -->
<g id="edge3_Node000001_Node000004" class="edge">
<title>Node1&#45;&gt;Node4</title>
<g id="a_edge3_Node000001_Node000004"><a xlink:title=" ">
<path fill="none" stroke="#63b8ff" d="M212.15,-66.18C206.25,-57.71 197.22,-44.74 189.84,-34.14"/>
<polygon fill="#63b8ff" stroke="#63b8ff" points="192.25,-32.48 183.66,-26.28 186.5,-36.48 192.25,-32.48"/>
</a>
</g>
</g>
<!-- Node5 -->
<g id="Node000005" class="node">
<title>Node5</title>
<g id="a_Node000005"><a xlink:title=" ">
<polygon fill="#e0e0e0" stroke="#999999" points="292.12,-24.88 226.62,-24.88 226.62,-5.63 292.12,-5.63 292.12,-24.88"/>
<text text-anchor="middle" x="259.38" y="-11.38" font-family="Helvetica,sans-Serif" font-size="10.00">string_view</text>
</a>
</g>
</g>
<!-- Node1&#45;&gt;Node5 -->
<g id="edge4_Node000001_Node000005" class="edge">
<title>Node1&#45;&gt;Node5</title>
<g id="a_edge4_Node000001_Node000005"><a xlink:title=" ">
<path fill="none" stroke="#63b8ff" d="M224.6,-66.18C230.5,-57.71 239.53,-44.74 246.91,-34.14"/>
<polygon fill="#63b8ff" stroke="#63b8ff" points="250.25,-36.48 253.09,-26.28 244.5,-32.48 250.25,-36.48"/>
</a>
</g>
</g>
<!-- Node6 -->
<g id="Node000006" class="node">
<title>Node6</title>
<g id="a_Node000006"><a xlink:title=" ">
<polygon fill="#e0e0e0" stroke="#999999" points="352.88,-24.88 309.88,-24.88 309.88,-5.63 352.88,-5.63 352.88,-24.88"/>
<text text-anchor="middle" x="331.38" y="-11.38" font-family="Helvetica,sans-Serif" font-size="10.00">vector</text>
</a>
</g>
</g>
<!-- Node1&#45;&gt;Node6 -->
<g id="edge5_Node000001_Node000006" class="edge">
<title>Node1&#45;&gt;Node6</title>
<g id="a_edge5_Node000001_Node000006"><a xlink:title=" ">
<path fill="none" stroke="#63b8ff" d="M235.54,-66.18C253.87,-56.63 283.18,-41.36 304.56,-30.22"/>
<polygon fill="#63b8ff" stroke="#63b8ff" points="305.8,-33 313.05,-25.28 302.57,-26.79 305.8,-33"/>
</a>
</g>
</g>
<!-- Node7 -->
<g id="Node000007" class="node">
<title>Node7</title>
<g id="a_Node000007"><a xlink:title=" ">
<polygon fill="#e0e0e0" stroke="#999999" points="481.62,-30.5 371.12,-30.5 371.12,0 481.62,0 481.62,-30.5"/>
<text text-anchor="start" x="379.12" y="-17" font-family="Helvetica,sans-Serif" font-size="10.00">lserializing/lserializing</text>
<text text-anchor="middle" x="426.38" y="-5.75" font-family="Helvetica,sans-Serif" font-size="10.00">_Export.h</text>
</a>
</g>
</g>
<!-- Node1&#45;&gt;Node7 -->
<g id="edge6_Node000001_Node000007" class="edge">
<title>Node1&#45;&gt;Node7</title>
<g id="a_edge6_Node000001_Node000007"><a xlink:title=" ">
<path fill="none" stroke="#63b8ff" d="M250.42,-66.05C280.63,-57.5 326.72,-44.46 364.15,-33.86"/>
<polygon fill="#63b8ff" stroke="#63b8ff" points="364.79,-37.04 373.46,-30.94 362.88,-30.3 364.79,-37.04"/>
</a>
</g>
</g>
</g>
</svg>
</svg>

<style type='text/css'>
<![CDATA[
[data-mouse-over-selected='false'] { opacity: 0.7; }
[data-mouse-over-selected='true']  { opacity: 1.0; }
]]>
</style>
<script type="application/ecmascript"><![CDATA[
document.addEventListener('DOMContentLoaded', (event) => {
  highlightEdges();
  highlightAdjacentNodes();
});
]]></script>
</svg>
